<?xml version="1.0" encoding="utf-8"?>
<!-- Generator: Adobe Illustrator 19.2.1, SVG Export Plug-In . SVG Version: 6.00 Build 0)  -->
<svg version="1.1" xmlns="http://www.w3.org/2000/svg" xmlns:xlink="http://www.w3.org/1999/xlink" x="0px" y="0px"
	 viewBox="0 0 600 150" style="enable-background:new 0 0 600 150;" xml:space="preserve">
<style type="text/css">
	.st0{fill:#A5BF39;}
	.st1{fill:none;stroke:#A5BF39;stroke-width:2.776;stroke-linecap:round;stroke-miterlimit:10;}
	
		.st2{fill:none;stroke:#A5BF39;stroke-width:3.5773;stroke-linecap:round;stroke-linejoin:round;stroke-miterlimit:10;stroke-dasharray:0,4.2927;}
	.st3{fill:none;stroke:#A5BF39;stroke-width:3;stroke-linecap:round;stroke-linejoin:round;stroke-miterlimit:10;}
	.st4{fill:none;stroke:#A5BF39;stroke-width:2.1464;stroke-linecap:round;stroke-linejoin:round;stroke-miterlimit:10;}
	.st5{fill:none;stroke:#A5BF39;stroke-width:2.1464;stroke-linecap:round;stroke-linejoin:round;}
	.st6{fill:none;stroke:#A5BF39;stroke-width:2.1464;stroke-linecap:round;stroke-linejoin:round;stroke-dasharray:0,4.3049;}
	.st7{fill:none;stroke:#A5BF39;stroke-width:2.6663;stroke-linecap:round;stroke-linejoin:round;stroke-miterlimit:10;}
</style>
<g id="Layer_1">
	<g>
		<g>
			<path class="st0" d="M75.2,5.5c38.3,0,69.5,31.2,69.5,69.5s-31.2,69.5-69.5,69.5S5.7,113.3,5.7,75S36.9,5.5,75.2,5.5 M75.2,2.5
				C35.2,2.5,2.7,35,2.7,75s32.5,72.5,72.5,72.5S147.7,115,147.7,75S115.3,2.5,75.2,2.5L75.2,2.5z"/>
		</g>
	</g>
</g>
<g id="Layer_2">
	<g>
		<polyline class="st7" points="67.3,83.3 76,92.1 92.8,74.5 		"/>
		<path class="st7" d="M101.4,62c4.7-0.9,8.2-5,8.2-10c0-5.6-4.5-10.1-10.1-10.1c-5,0-9.1,3.6-10,8.3L75.2,36.2L59.9,51.6
			c0.2,0,0.3,0,0.5,0c5.6,0,10.1,4.5,10.1,10.1c0,5.6-4.5,10.1-10.1,10.1c-5.6,0-10.1-4.5-10.1-10.1c0-0.2,0-0.3,0-0.5L34.9,76.5
			l40.3,40.6l40.7-40.7L101.4,62z"/>
	</g>
</g>
</svg>
