<?xml version="1.0" encoding="utf-8"?>
<!-- Generator: Adobe Illustrator 19.2.1, SVG Export Plug-In . SVG Version: 6.00 Build 0)  -->
<svg version="1.1" xmlns="http://www.w3.org/2000/svg" xmlns:xlink="http://www.w3.org/1999/xlink" x="0px" y="0px"
	 viewBox="0 0 600 150" style="enable-background:new 0 0 600 150;" xml:space="preserve">
<style type="text/css">
	.st0{fill:#A5BF39;}
	.st1{fill:none;stroke:#A5BF39;stroke-width:2.776;stroke-linecap:round;stroke-miterlimit:10;}
	
		.st2{fill:none;stroke:#A5BF39;stroke-width:3.5773;stroke-linecap:round;stroke-linejoin:round;stroke-miterlimit:10;stroke-dasharray:0,4.2927;}
	.st3{fill:none;stroke:#A5BF39;stroke-width:3;stroke-linecap:round;stroke-linejoin:round;stroke-miterlimit:10;}
	.st4{fill:none;stroke:#A5BF39;stroke-width:2.1464;stroke-linecap:round;stroke-linejoin:round;stroke-miterlimit:10;}
	.st5{fill:none;stroke:#A5BF39;stroke-width:2.1464;stroke-linecap:round;stroke-linejoin:round;}
	.st6{fill:none;stroke:#A5BF39;stroke-width:2.1464;stroke-linecap:round;stroke-linejoin:round;stroke-dasharray:0,4.3049;}
	.st7{fill:none;stroke:#A5BF39;stroke-width:2.6663;stroke-linecap:round;stroke-linejoin:round;stroke-miterlimit:10;}
</style>
<g id="Layer_1">
	<g>
		<path class="st0" d="M75,5c38.6,0,70,31.4,70,70s-31.4,70-70,70S5,113.6,5,75S36.4,5,75,5 M75,2C34.7,2,2,34.7,2,75s32.7,73,73,73
			s73-32.7,73-73S115.3,2,75,2L75,2z"/>
	</g>
</g>
<g id="Layer_2">
	<g>
		<path class="st1" d="M46.3,107.6l25.2-35.4c0,0,25.6,35.4,25.2,35.4"/>
		<path class="st1" d="M71.5,72l0-15.6L71.6,38c0-0.3,0.1-0.5,0.2-0.7c0.5-0.7,2.2-1.9,7.8-1.6c7.9,0.3,10.3,4.3,16,4.2
			c3-0.1,5.2-0.7,6.5-1.2c0.9-0.3,1.8,0.3,1.8,1.2l0,14.1c0,0.4-0.1,0.7-0.4,0.9c-0.9,0.8-3.1,2.6-6.7,2.6c-4.6,0-10.3-3.8-16.7-3.8
			s-7.7,0.6-7.7,0.6"/>
		<path class="st1" d="M33.6,99.2l13.2-17.3c0.3-0.4,0.8-0.3,1.1,0L56,93"/>
		<path class="st1" d="M110.2,99.4L97.1,82c-0.3-0.4-0.8-0.4-1.1,0l-8.9,11.7"/>
		<path class="st1" d="M63.9,90c-0.3-0.4,2.1,2.6,3.1,3.6c0.2,0.2,0.5,0.2,0.7,0l3.6-3c0.4-0.3,0.9-0.2,1.2,0.1l2.2,2.8
			c0.2,0.2,0.5,0.3,0.8,0.1l4.1-3.5"/>
	</g>
</g>
</svg>
