<svg id="Layer_1" data-name="Layer 1" xmlns="http://www.w3.org/2000/svg" viewBox="0 0 600 150"><defs><style>.cls-1{fill:#477391;}</style></defs><title>fig4icons</title><path class="cls-1" d="M75,6.37A68.5,68.5,0,1,1,6.5,74.87,68.58,68.58,0,0,1,75,6.37m0-4a72.5,72.5,0,1,0,72.5,72.5A72.5,72.5,0,0,0,75,2.37h0Z"/><path class="cls-1" d="M104.92,102H45.08a19.38,19.38,0,1,1,0-38.75q0.59,0,1.19,0c-0.06-.74-0.09-1.46-0.09-2.16a28.83,28.83,0,0,1,57.66,0c0,0.71,0,1.42-.09,2.16q0.59,0,1.19,0A19.38,19.38,0,1,1,104.92,102ZM45.08,67.25a15.38,15.38,0,1,0,0,30.75h59.85a15.38,15.38,0,1,0,0-30.75,15.65,15.65,0,0,0-3.1.31,2,2,0,0,1-2.37-2.29,24.83,24.83,0,1,0-48.91,0,2,2,0,0,1-2.37,2.29A15.65,15.65,0,0,0,45.08,67.25Z"/><path class="cls-1" d="M79.86,86.28a2,2,0,0,1-1.41-.59,4.88,4.88,0,0,0-6.9,0,2,2,0,0,1-2.83-2.83,8.89,8.89,0,0,1,12.55,0A2,2,0,0,1,79.86,86.28Z"/><path class="cls-1" d="M85.54,80.61A2,2,0,0,1,84.12,80a12.91,12.91,0,0,0-18.24,0,2,2,0,0,1-2.83-2.83,16.92,16.92,0,0,1,23.9,0A2,2,0,0,1,85.54,80.61Z"/><path class="cls-1" d="M91.21,74.93a2,2,0,0,1-1.41-.59,21,21,0,0,0-29.59,0,2,2,0,0,1-2.83-2.83,25,25,0,0,1,35.24,0A2,2,0,0,1,91.21,74.93Z"/></svg>