<svg xmlns="http://www.w3.org/2000/svg" viewBox="0 0 600 735.03"><defs><style>.cls-1{fill:#4c4d4d;}.cls-2{fill:#a5bf39;}.cls-3,.cls-4,.cls-5,.cls-6{fill:none;stroke-width:4px;}.cls-3{stroke:#529299;}.cls-3,.cls-4,.cls-6{stroke-linecap:round;stroke-linejoin:round;}.cls-4{stroke:#477391;}.cls-5,.cls-6{stroke:#7f969b;}.cls-5{stroke-miterlimit:10;}</style></defs><title>Fig4-inline</title><g id="Layer_1" data-name="Layer 1"><path class="cls-1" d="M99.67,39.4H92.22v-5h20.3v5h-7.46V58.93H99.67Z"/><path class="cls-1" d="M115.86,33.38h5.32v9.45a6.64,6.64,0,0,1,5.5-3c4,0,6.37,2.66,6.37,7V58.93h-5.32V48.46c0-2.52-1.19-3.81-3.22-3.81s-3.33,1.29-3.33,3.81V58.93h-5.32Z"/><path class="cls-1" d="M136.9,49.66v-.07c0-5.36,3.82-9.77,9.28-9.77,6.27,0,9.14,4.87,9.14,10.19,0,.42,0,.91-.07,1.4H142.18a4.35,4.35,0,0,0,4.59,3.67,6.15,6.15,0,0,0,4.55-1.92l3,2.7a9.91,9.91,0,0,1-17.47-6.2Zm13.23-1.58c-.31-2.38-1.72-4-4-4s-3.64,1.58-4.06,4Z"/><path class="cls-1" d="M176.38,39.4h-7.46v-5h20.3v5h-7.46V58.93h-5.39Z"/><path class="cls-1" d="M192.56,33.38h5.32v9.45a6.64,6.64,0,0,1,5.5-3c4,0,6.37,2.66,6.37,7V58.93h-5.32V48.46c0-2.52-1.19-3.81-3.22-3.81s-3.33,1.29-3.33,3.81V58.93h-5.32Z"/><path class="cls-1" d="M214.6,40.17h5.32v3.78c1.09-2.59,2.84-4.27,6-4.13v5.56h-.28c-3.54,0-5.71,2.14-5.71,6.62v6.93H214.6Z"/><path class="cls-1" d="M228.17,49.66v-.07c0-5.36,3.82-9.77,9.28-9.77,6.27,0,9.14,4.87,9.14,10.19,0,.42,0,.91-.07,1.4H233.46A4.35,4.35,0,0,0,238,55.08a6.15,6.15,0,0,0,4.55-1.92l3,2.7a9.91,9.91,0,0,1-17.47-6.2Zm13.23-1.58c-.31-2.38-1.72-4-4-4s-3.64,1.58-4.06,4Z"/><path class="cls-1" d="M249.58,49.66v-.07c0-5.36,3.82-9.77,9.28-9.77,6.27,0,9.14,4.87,9.14,10.19,0,.42,0,.91-.07,1.4H254.87a4.35,4.35,0,0,0,4.59,3.67A6.15,6.15,0,0,0,264,53.16l3,2.7a9.91,9.91,0,0,1-17.47-6.2Zm13.23-1.58c-.31-2.38-1.72-4-4-4s-3.64,1.58-4.06,4Z"/><path class="cls-1" d="M283.36,34.43H302v4.9H288.75v5.21h11.69v4.9H288.75v9.49h-5.39Z"/><path class="cls-1" d="M303.51,53.54v-.07c0-4.1,3.12-6,7.56-6a13.33,13.33,0,0,1,4.59.77v-.32c0-2.21-1.37-3.43-4-3.43a13.78,13.78,0,0,0-5.18,1l-1.33-4.06A16.55,16.55,0,0,1,312.4,40c2.91,0,5,.77,6.34,2.1a8.17,8.17,0,0,1,2,6V58.93h-5.15v-2a7.21,7.21,0,0,1-5.67,2.38C306.41,59.28,303.51,57.25,303.51,53.54Zm12.22-1.22v-.95a8.25,8.25,0,0,0-3.4-.7c-2.27,0-3.67.91-3.67,2.59v.07c0,1.43,1.19,2.28,2.91,2.28C314,55.61,315.72,54.24,315.72,52.32Z"/><path class="cls-1" d="M324.46,49.66v-.07a9.63,9.63,0,0,1,9.84-9.77A9.22,9.22,0,0,1,341.79,43l-3.25,3.5a5.48,5.48,0,0,0-4.27-2.07c-2.66,0-4.55,2.34-4.55,5.11v.07c0,2.87,1.86,5.18,4.76,5.18a6,6,0,0,0,4.31-2l3.12,3.15a9.45,9.45,0,0,1-7.67,3.43A9.58,9.58,0,0,1,324.46,49.66Z"/><path class="cls-1" d="M343.91,49.66v-.07c0-5.36,3.82-9.77,9.28-9.77,6.27,0,9.14,4.87,9.14,10.19,0,.42,0,.91-.07,1.4H349.2a4.35,4.35,0,0,0,4.58,3.67,6.15,6.15,0,0,0,4.55-1.92l3,2.7a9.91,9.91,0,0,1-17.47-6.2Zm13.23-1.58c-.31-2.38-1.71-4-4-4s-3.64,1.58-4.06,4Z"/><path class="cls-1" d="M367,53.61V44.72h-2.24V40.17H367v-4.8h5.32v4.8h4.41v4.55h-4.41v8c0,1.22.52,1.82,1.71,1.82a5.41,5.41,0,0,0,2.63-.67v4.27a7.85,7.85,0,0,1-4.2,1.08C369.16,59.25,367,58,367,53.61Z"/><path class="cls-1" d="M379.27,56.45l2.28-3.5a10.6,10.6,0,0,0,5.92,2.24c1.54,0,2.24-.56,2.24-1.4v-.07c0-1.16-1.82-1.54-3.88-2.17-2.63-.77-5.6-2-5.6-5.64v-.07c0-3.81,3.08-6,6.86-6a13,13,0,0,1,7,2.17l-2,3.67A11.12,11.12,0,0,0,387,44c-1.3,0-2,.56-2,1.3v.07c0,1.05,1.79,1.54,3.82,2.24,2.63.88,5.67,2.14,5.67,5.57v.07c0,4.17-3.12,6.05-7.18,6.05A13.14,13.14,0,0,1,379.27,56.45Z"/><path class="cls-1" d="M408.25,49.66v-.07a10.16,10.16,0,0,1,20.3-.07v.07a10.16,10.16,0,0,1-20.3.07Zm15.05,0v-.07a5,5,0,0,0-4.94-5.18,4.81,4.81,0,0,0-4.87,5.11v.07a5,5,0,0,0,4.94,5.18A4.81,4.81,0,0,0,423.3,49.66Z"/><path class="cls-1" d="M433.13,44.72h-2.21V40.34h2.21V39.15a6.19,6.19,0,0,1,1.51-4.55,5.84,5.84,0,0,1,4.3-1.47,11.76,11.76,0,0,1,3.78.53v4.41a6.73,6.73,0,0,0-2.42-.46c-1.22,0-1.92.63-1.92,2v.74h4.31v4.34h-4.24V58.93h-5.32Z"/><path class="cls-1" d="M457.25,34.43h5.39v24.5h-5.39Z"/><path class="cls-1" d="M467.45,49.66v-.07a10.16,10.16,0,0,1,20.3-.07v.07a10.16,10.16,0,0,1-20.3.07Zm15.05,0v-.07a5,5,0,0,0-4.94-5.18,4.81,4.81,0,0,0-4.87,5.11v.07a5,5,0,0,0,4.94,5.18A4.81,4.81,0,0,0,482.5,49.66Z"/><path class="cls-1" d="M494.94,39.4h-7.46v-5h20.3v5h-7.46V58.93h-5.39Z"/><path class="cls-2" d="M264.6,379.74a168.85,168.85,0,0,0,36.51,61.88,168.85,168.85,0,0,0,35.34-62.56A168.85,168.85,0,0,0,264.6,379.74Z"/><circle class="cls-3" cx="174.33" cy="328.83" r="169.7" transform="translate(-170.22 469.56) rotate(-84.29)"/><circle class="cls-4" cx="302.16" cy="545.26" r="169.7" transform="translate(-197.53 172.54) rotate(-24.29)"/><circle class="cls-5" cx="425.67" cy="326.33" r="169.7" transform="translate(-87.77 481.47) rotate(-54.29)"/><path class="cls-1" d="M101.81,330.17h6.53c5.5,0,9.3,3.78,9.3,8.7v0c0,4.93-3.8,8.75-9.3,8.75h-6.53Zm3.08,2.8v11.9h3.45a5.71,5.71,0,0,0,6.08-5.9v0a5.74,5.74,0,0,0-6.08-6Z"/><path class="cls-1" d="M120.5,341.12v0c0-3.78,2.68-6.88,6.45-6.88,4.2,0,6.33,3.3,6.33,7.1,0,.27,0,.55,0,.85h-9.7a3.69,3.69,0,0,0,3.8,3.35,4.79,4.79,0,0,0,3.58-1.58l1.78,1.58a6.68,6.68,0,0,1-5.4,2.48A6.59,6.59,0,0,1,120.5,341.12Zm9.78-1c-.2-2-1.35-3.48-3.35-3.48s-3.15,1.43-3.43,3.48Z"/><path class="cls-1" d="M134.56,334.47h3.25l3.55,9.7,3.58-9.7h3.18l-5.4,13.3H140Z"/><path class="cls-1" d="M150.67,329.57h3.25v2.88h-3.25Zm.13,4.9h3v13.21h-3Z"/><path class="cls-1" d="M157.09,341.15v0a6.82,6.82,0,0,1,6.88-6.9,6.67,6.67,0,0,1,5.28,2.28l-1.9,2a4.43,4.43,0,0,0-3.4-1.65,4,4,0,0,0-3.83,4.2v0a4,4,0,0,0,4,4.23,4.62,4.62,0,0,0,3.43-1.63l1.83,1.8a6.92,6.92,0,0,1-12.23-4.35Z"/><path class="cls-1" d="M171.14,341.12v0c0-3.78,2.68-6.88,6.45-6.88,4.2,0,6.33,3.3,6.33,7.1,0,.27,0,.55,0,.85h-9.7a3.69,3.69,0,0,0,3.8,3.35,4.79,4.79,0,0,0,3.58-1.58l1.78,1.58a6.68,6.68,0,0,1-5.4,2.48A6.59,6.59,0,0,1,171.14,341.12Zm9.78-1c-.2-2-1.35-3.48-3.35-3.48s-3.15,1.43-3.43,3.48Z"/><path class="cls-1" d="M83.12,359h3.08v7.28h8.35V359h3.08v17.51H94.55V369.1H86.19v7.38H83.12Z"/><path class="cls-1" d="M101.23,372.68v0c0-2.85,2.23-4.25,5.45-4.25a11,11,0,0,1,3.55.55v-.33c0-1.88-1.15-2.88-3.28-2.88a9.2,9.2,0,0,0-3.78.83l-.8-2.38a11.27,11.27,0,0,1,5-1.08,5.92,5.92,0,0,1,4.38,1.48,5.48,5.48,0,0,1,1.43,4.08v7.83h-3v-1.65a5.37,5.37,0,0,1-4.3,1.93C103.43,376.76,101.23,375.33,101.23,372.68Zm9.05-1v-.9a8.4,8.4,0,0,0-3-.53c-2,0-3.1.83-3.1,2.2v0c0,1.28,1.13,2,2.58,2C108.76,374.56,110.28,373.4,110.28,371.73Z"/><path class="cls-1" d="M117,363.28h3v3a4.68,4.68,0,0,1,4.68-3.23v3.2h-.18c-2.65,0-4.5,1.73-4.5,5.23v5h-3Z"/><path class="cls-1" d="M126.65,369.9v0c0-4.38,3-6.85,6.13-6.85a5.4,5.4,0,0,1,4.5,2.33v-7.1h3v18.26h-3v-2.2a5.29,5.29,0,0,1-4.5,2.48C129.68,376.76,126.65,374.28,126.65,369.9Zm10.68,0v0a4,4,0,0,0-3.83-4.23c-2.08,0-3.8,1.6-3.8,4.23v0a3.93,3.93,0,0,0,3.8,4.23A4,4,0,0,0,137.33,369.9Z"/><path class="cls-1" d="M143,363.28h3.1l2.65,9.05,2.93-9.1h2.6l2.93,9.1,2.7-9.05h3.05l-4.33,13.3h-2.73l-3-9-3,9h-2.7Z"/><path class="cls-1" d="M164.48,372.68v0c0-2.85,2.23-4.25,5.45-4.25a11,11,0,0,1,3.55.55v-.33c0-1.88-1.15-2.88-3.28-2.88a9.2,9.2,0,0,0-3.78.83l-.8-2.38a11.27,11.27,0,0,1,5-1.08,5.92,5.92,0,0,1,4.38,1.48,5.48,5.48,0,0,1,1.43,4.08v7.83h-3v-1.65a5.37,5.37,0,0,1-4.3,1.93C166.68,376.76,164.48,375.33,164.48,372.68Zm9.05-1v-.9a8.4,8.4,0,0,0-3-.53c-2,0-3.1.83-3.1,2.2v0c0,1.28,1.13,2,2.58,2C172,374.56,173.53,373.4,173.53,371.73Z"/><path class="cls-1" d="M180.28,363.28h3v3A4.68,4.68,0,0,1,188,363v3.2h-.18c-2.65,0-4.5,1.73-4.5,5.23v5h-3Z"/><path class="cls-1" d="M189.83,369.93v0c0-3.78,2.68-6.88,6.45-6.88,4.2,0,6.33,3.3,6.33,7.1,0,.27,0,.55,0,.85h-9.7a3.69,3.69,0,0,0,3.8,3.35,4.79,4.79,0,0,0,3.58-1.58l1.78,1.58a6.68,6.68,0,0,1-5.4,2.48A6.59,6.59,0,0,1,189.83,369.93Zm9.78-1c-.2-2-1.35-3.48-3.35-3.48-1.85,0-3.15,1.43-3.43,3.48Z"/><path class="cls-1" d="M414.38,330.17h6.53c5.5,0,9.3,3.78,9.3,8.7v0c0,4.93-3.8,8.75-9.3,8.75h-6.53Zm3.08,2.8v11.9h3.45A5.71,5.71,0,0,0,427,339v0a5.74,5.74,0,0,0-6.08-6Z"/><path class="cls-1" d="M433.07,341.12v0c0-3.78,2.68-6.88,6.45-6.88,4.2,0,6.33,3.3,6.33,7.1,0,.27,0,.55,0,.85h-9.7a3.69,3.69,0,0,0,3.8,3.35,4.79,4.79,0,0,0,3.58-1.58l1.78,1.58a6.68,6.68,0,0,1-5.4,2.48A6.59,6.59,0,0,1,433.07,341.12Zm9.78-1c-.2-2-1.35-3.48-3.35-3.48-1.85,0-3.15,1.43-3.43,3.48Z"/><path class="cls-1" d="M447.13,334.47h3.25l3.55,9.7,3.58-9.7h3.18l-5.4,13.3h-2.73Z"/><path class="cls-1" d="M463.24,329.57h3.25v2.88h-3.25Zm.13,4.9h3v13.21h-3Z"/><path class="cls-1" d="M469.66,341.15v0a6.81,6.81,0,0,1,6.88-6.9,6.67,6.67,0,0,1,5.28,2.28l-1.9,2a4.43,4.43,0,0,0-3.4-1.65,4,4,0,0,0-3.83,4.2v0a4,4,0,0,0,4,4.23,4.62,4.62,0,0,0,3.43-1.63l1.83,1.8a6.92,6.92,0,0,1-12.23-4.35Z"/><path class="cls-1" d="M483.71,341.12v0c0-3.78,2.68-6.88,6.45-6.88,4.2,0,6.33,3.3,6.33,7.1,0,.27,0,.55,0,.85h-9.7a3.69,3.69,0,0,0,3.8,3.35,4.79,4.79,0,0,0,3.58-1.58l1.78,1.58a6.68,6.68,0,0,1-5.4,2.48A6.59,6.59,0,0,1,483.71,341.12Zm9.78-1c-.2-2-1.35-3.48-3.35-3.48-1.85,0-3.15,1.43-3.43,3.48Z"/><path class="cls-1" d="M398.6,373.93l1.85-2.2A8.11,8.11,0,0,0,406,374c1.9,0,3.1-.9,3.1-2.2v0c0-1.25-.7-1.93-4-2.68-3.73-.9-5.83-2-5.83-5.23v0c0-3,2.5-5.08,6-5.08a9.7,9.7,0,0,1,6.35,2.2L410,363.25a8,8,0,0,0-4.75-1.8c-1.8,0-2.85.92-2.85,2.08v.05c0,1.35.8,2,4.18,2.75,3.7.9,5.6,2.23,5.6,5.13v0c0,3.28-2.58,5.23-6.25,5.23A10.78,10.78,0,0,1,398.6,373.93Z"/><path class="cls-1" d="M414.86,370v0a7,7,0,0,1,14.08,0v0a6.9,6.9,0,0,1-7.08,6.88A6.83,6.83,0,0,1,414.86,370Zm11.05,0v0a4.08,4.08,0,0,0-4.05-4.25,4,4,0,0,0-4,4.2v0a4.07,4.07,0,0,0,4,4.23A4,4,0,0,0,425.91,370Z"/><path class="cls-1" d="M432.54,365.88h-1.68v-2.53h1.68v-1a4.46,4.46,0,0,1,1.08-3.25,4,4,0,0,1,3-1.05,8.09,8.09,0,0,1,2.45.35V361a5.31,5.31,0,0,0-1.78-.33c-1.15,0-1.75.63-1.75,2v.73H439v2.5h-3.45v10.6h-3Z"/><path class="cls-1" d="M442.59,372.83v-7h-1.68v-2.6h1.68v-3.63h3v3.63h3.55v2.6h-3.55v6.48a1.44,1.44,0,0,0,1.63,1.65,4.07,4.07,0,0,0,1.88-.45V376a5.24,5.24,0,0,1-2.73.67C444.17,376.71,442.59,375.73,442.59,372.83Z"/><path class="cls-1" d="M451.45,363.28h3.1l2.65,9.05,2.93-9.1h2.6l2.93,9.1,2.7-9.05h3.05l-4.33,13.3h-2.73l-3-9-3,9h-2.7Z"/><path class="cls-1" d="M473,372.68v0c0-2.85,2.23-4.25,5.45-4.25a11,11,0,0,1,3.55.55v-.33c0-1.88-1.15-2.88-3.28-2.88a9.19,9.19,0,0,0-3.78.83l-.8-2.38a11.26,11.26,0,0,1,5-1.08,5.92,5.92,0,0,1,4.38,1.48,5.48,5.48,0,0,1,1.43,4.08v7.83h-3v-1.65a5.37,5.37,0,0,1-4.3,1.93C475.17,376.76,473,375.33,473,372.68Zm9.05-1v-.9a8.4,8.4,0,0,0-3-.53c-2,0-3.1.83-3.1,2.2v0c0,1.28,1.13,2,2.58,2C480.49,374.56,482,373.4,482,371.73Z"/><path class="cls-1" d="M488.76,363.28h3v3a4.68,4.68,0,0,1,4.68-3.23v3.2h-.17c-2.65,0-4.5,1.73-4.5,5.23v5h-3Z"/><path class="cls-1" d="M498.32,369.93v0c0-3.78,2.68-6.88,6.45-6.88,4.2,0,6.33,3.3,6.33,7.1,0,.27,0,.55,0,.85h-9.7a3.69,3.69,0,0,0,3.8,3.35,4.79,4.79,0,0,0,3.58-1.58l1.78,1.58a6.68,6.68,0,0,1-5.4,2.48A6.59,6.59,0,0,1,498.32,369.93Zm9.78-1c-.2-2-1.35-3.48-3.35-3.48-1.85,0-3.15,1.43-3.43,3.48Z"/><path class="cls-1" d="M264.28,607.1v0a8.86,8.86,0,0,1,9-9.05,9.13,9.13,0,0,1,6.85,2.73l-2,2.28a7,7,0,0,0-4.9-2.18A5.89,5.89,0,0,0,267.5,607v0a5.9,5.9,0,0,0,5.78,6.2,6.84,6.84,0,0,0,5-2.25l2,2a9,9,0,0,1-7.1,3.1A8.8,8.8,0,0,1,264.28,607.1Z"/><path class="cls-1" d="M283.26,597.54h3V615.8h-3Z"/><path class="cls-1" d="M289.58,609.27v0a7,7,0,0,1,14.08,0v0a6.9,6.9,0,0,1-7.08,6.88A6.83,6.83,0,0,1,289.58,609.27Zm11.05,0v0a4.08,4.08,0,0,0-4.05-4.25,4,4,0,0,0-4,4.2v0a4.07,4.07,0,0,0,4,4.23A4,4,0,0,0,300.64,609.27Z"/><path class="cls-1" d="M306.77,611v-8.4h3v7.5c0,2.05,1,3.2,2.83,3.2a2.92,2.92,0,0,0,3-3.25v-7.45h3.05V615.8H315.6v-2.05a4.75,4.75,0,0,1-4.13,2.33C308.5,616.07,306.77,614.07,306.77,611Z"/><path class="cls-1" d="M322,609.22v0c0-4.38,3-6.85,6.13-6.85a5.4,5.4,0,0,1,4.5,2.33v-7.1h3V615.8h-3v-2.2a5.29,5.29,0,0,1-4.5,2.48C325,616.07,322,613.6,322,609.22Zm10.68,0v0a4,4,0,0,0-3.83-4.23c-2.08,0-3.8,1.6-3.8,4.23v0a3.93,3.93,0,0,0,3.8,4.23A4,4,0,0,0,332.65,609.22Z"/><path class="cls-1" d="M226.33,627.1h13v2.75h-9.9v4.55h8.78v2.75h-8.78v4.7h10v2.75h-13.1Z"/><path class="cls-1" d="M243,631.4h3v2a4.79,4.79,0,0,1,4.13-2.3c3,0,4.7,2,4.7,5.05v8.43h-3v-7.5c0-2.05-1-3.23-2.83-3.23s-3,1.22-3,3.28v7.45h-3Z"/><path class="cls-1" d="M257.79,640.8v0c0-2.85,2.23-4.25,5.45-4.25a11,11,0,0,1,3.55.55v-.33c0-1.88-1.15-2.88-3.28-2.88a9.2,9.2,0,0,0-3.78.83l-.8-2.38a11.27,11.27,0,0,1,5-1.08,5.92,5.92,0,0,1,4.38,1.48,5.48,5.48,0,0,1,1.43,4.08v7.83h-3V643a5.37,5.37,0,0,1-4.3,1.93C260,644.88,257.79,643.45,257.79,640.8Zm9.05-1v-.9a8.4,8.4,0,0,0-3-.53c-2,0-3.1.83-3.1,2.2v0c0,1.28,1.13,2,2.58,2C265.31,642.68,266.84,641.53,266.84,639.85Z"/><path class="cls-1" d="M276.61,642.55v2.05h-3V626.35h3v7.25a5.28,5.28,0,0,1,4.5-2.48c3.1,0,6.13,2.45,6.13,6.85v0c0,4.38-3,6.85-6.13,6.85A5.39,5.39,0,0,1,276.61,642.55Zm7.55-4.53v0a3.91,3.91,0,0,0-3.78-4.23,4,4,0,0,0-3.85,4.23v0a4,4,0,0,0,3.85,4.23C282.46,642.25,284.16,640.63,284.16,638Z"/><path class="cls-1" d="M290.65,626.35h3V644.6h-3Z"/><path class="cls-1" d="M297,638v0c0-3.78,2.68-6.88,6.45-6.88,4.2,0,6.33,3.3,6.33,7.1,0,.27,0,.55,0,.85H300a3.69,3.69,0,0,0,3.8,3.35,4.79,4.79,0,0,0,3.58-1.58l1.78,1.58a6.68,6.68,0,0,1-5.4,2.48A6.59,6.59,0,0,1,297,638Zm9.78-1c-.2-2-1.35-3.48-3.35-3.48-1.85,0-3.15,1.43-3.43,3.48Z"/><path class="cls-1" d="M313,631.4h3v2a4.73,4.73,0,0,1,4-2.28,4.19,4.19,0,0,1,4,2.33,5.31,5.31,0,0,1,4.45-2.33c2.88,0,4.63,1.83,4.63,5.05v8.43h-3v-7.5c0-2.1-1-3.23-2.68-3.23s-2.83,1.15-2.83,3.28v7.45h-3v-7.53c0-2.05-1-3.2-2.68-3.2s-2.83,1.25-2.83,3.28v7.45h-3Z"/><path class="cls-1" d="M336.33,638v0c0-3.78,2.68-6.88,6.45-6.88,4.2,0,6.33,3.3,6.33,7.1,0,.27,0,.55,0,.85h-9.7a3.69,3.69,0,0,0,3.8,3.35,4.79,4.79,0,0,0,3.58-1.58l1.78,1.58a6.68,6.68,0,0,1-5.4,2.48A6.59,6.59,0,0,1,336.33,638Zm9.78-1c-.2-2-1.35-3.48-3.35-3.48-1.85,0-3.15,1.43-3.43,3.48Z"/><path class="cls-1" d="M352.36,631.4h3v2a4.79,4.79,0,0,1,4.13-2.3c3,0,4.7,2,4.7,5.05v8.43h-3v-7.5c0-2.05-1-3.23-2.83-3.23s-3,1.22-3,3.28v7.45h-3Z"/><path class="cls-1" d="M368.49,641v-7h-1.68v-2.6h1.68v-3.63h3v3.63h3.55V634h-3.55v6.48a1.44,1.44,0,0,0,1.63,1.65,4.07,4.07,0,0,0,1.88-.45v2.48a5.24,5.24,0,0,1-2.73.67C370.06,644.83,368.49,643.85,368.49,641Z"/><path class="cls-1" d="M248.13,670.85l1.85-2.2a8.1,8.1,0,0,0,5.53,2.28c1.9,0,3.1-.9,3.1-2.2v0c0-1.25-.7-1.93-4-2.68-3.73-.9-5.83-2-5.83-5.23v0c0-3,2.5-5.08,6-5.08a9.7,9.7,0,0,1,6.35,2.2l-1.65,2.33a8,8,0,0,0-4.75-1.8c-1.8,0-2.85.92-2.85,2.08v.05c0,1.35.8,2,4.18,2.75,3.7.9,5.6,2.23,5.6,5.13v0c0,3.28-2.58,5.23-6.25,5.23A10.78,10.78,0,0,1,248.13,670.85Z"/><path class="cls-1" d="M264.39,666.85v0c0-3.78,2.68-6.88,6.45-6.88,4.2,0,6.33,3.3,6.33,7.1,0,.27,0,.55,0,.85h-9.7a3.69,3.69,0,0,0,3.8,3.35,4.79,4.79,0,0,0,3.58-1.58l1.78,1.58a6.68,6.68,0,0,1-5.4,2.48A6.59,6.59,0,0,1,264.39,666.85Zm9.78-1c-.2-2-1.35-3.48-3.35-3.48-1.85,0-3.15,1.43-3.43,3.48Z"/><path class="cls-1" d="M280.42,660.2h3v3a4.68,4.68,0,0,1,4.68-3.23v3.2h-.18c-2.65,0-4.5,1.73-4.5,5.23v5h-3Z"/><path class="cls-1" d="M290.11,660.2h3.25l3.55,9.7,3.58-9.7h3.18l-5.4,13.3h-2.73Z"/><path class="cls-1" d="M306.23,655.3h3.25v2.88h-3.25Zm.13,4.9h3v13.21h-3Z"/><path class="cls-1" d="M312.65,666.88v0a6.81,6.81,0,0,1,6.88-6.9,6.67,6.67,0,0,1,5.28,2.28l-1.9,2a4.43,4.43,0,0,0-3.4-1.65,4,4,0,0,0-3.83,4.2v0a4,4,0,0,0,4,4.23,4.62,4.62,0,0,0,3.43-1.63l1.83,1.8a6.92,6.92,0,0,1-12.23-4.35Z"/><path class="cls-1" d="M326.7,666.85v0c0-3.78,2.68-6.88,6.45-6.88,4.2,0,6.33,3.3,6.33,7.1,0,.27,0,.55,0,.85h-9.7a3.69,3.69,0,0,0,3.8,3.35,4.79,4.79,0,0,0,3.58-1.58l1.78,1.58a6.68,6.68,0,0,1-5.4,2.48A6.59,6.59,0,0,1,326.7,666.85Zm9.78-1c-.2-2-1.35-3.48-3.35-3.48-1.85,0-3.15,1.43-3.43,3.48Z"/><path class="cls-1" d="M341.57,671.68l1.35-2.05a7.47,7.47,0,0,0,4.33,1.63c1.3,0,2.05-.55,2.05-1.43v0c0-1-1.4-1.38-3-1.85-2-.55-4.13-1.35-4.13-3.88v0c0-2.5,2.08-4,4.7-4a9.16,9.16,0,0,1,4.85,1.5l-1.2,2.15a7.66,7.66,0,0,0-3.73-1.25c-1.18,0-1.85.55-1.85,1.3v0c0,1,1.42,1.38,3,1.88,1.93.6,4.1,1.48,4.1,3.85v0c0,2.78-2.15,4.15-4.9,4.15A9.27,9.27,0,0,1,341.57,671.68Z"/><path class="cls-4" d="M334.75,529.31a22,22,0,0,0-4.37.44,33.48,33.48,0,1,0-65.95,0A21.86,21.86,0,1,0,260.07,573h74.68a21.86,21.86,0,1,0,0-43.72Z"/><path class="cls-4" d="M290.52,553.08a9.75,9.75,0,0,1,13.78,0"/><path class="cls-4" d="M282.48,545a21.11,21.11,0,0,1,29.86,0"/><path class="cls-4" d="M274.44,537a32.48,32.48,0,0,1,45.94,0"/><rect class="cls-5" x="425" y="226.03" width="59" height="63"/><rect class="cls-5" x="415.7" y="216.18" width="78.38" height="90.75" rx="10.56" ry="10.56"/><circle class="cls-5" cx="454.88" cy="297.9" r="2.06"/><path class="cls-6" d="M449.15,267.92a8.11,8.11,0,0,1,11.47,0"/><path class="cls-6" d="M442.46,261.23a17.57,17.57,0,0,1,24.85,0"/><path class="cls-6" d="M435.77,254.54a27,27,0,0,1,38.23,0"/><path class="cls-3" d="M152.78,217.74H110.24a4,4,0,0,0-4,4v28.07h6v18h-6v34.08a4,4,0,0,0,4,4h64.15a4,4,0,0,0,4-4V241.55a4,4,0,0,0-1.3-3l-21.61-19.81A4,4,0,0,0,152.78,217.74Z"/><line class="cls-3" x1="117" y1="227.03" x2="117" y2="237.03"/><line class="cls-3" x1="126" y1="227.03" x2="126" y2="237.03"/><line class="cls-3" x1="134" y1="227.03" x2="134" y2="237.03"/><rect class="cls-3" x="126.28" y="283.89" width="40.09" height="12.03"/></g></svg>