<svg id="Layer_1" data-name="Layer 1" xmlns="http://www.w3.org/2000/svg" viewBox="0 0 600 150"><defs><style>.cls-1{fill:#7f969b;}</style></defs><title>fig4icons</title><path class="cls-1" d="M75,6.5A68.5,68.5,0,1,1,6.5,75,68.58,68.58,0,0,1,75,6.5m0-4A72.5,72.5,0,1,0,147.5,75,72.5,72.5,0,0,0,75,2.5h0Z"/><path class="cls-1" d="M103,101H47V42h56v59ZM51,97H99V46H51V97Z"/><path class="cls-1" d="M101.83,116.36H48.17A9.17,9.17,0,0,1,39,107.2V42.8a9.17,9.17,0,0,1,9.16-9.16h53.67A9.17,9.17,0,0,1,111,42.8v64.4A9.17,9.17,0,0,1,101.83,116.36ZM48.17,37.64A5.16,5.16,0,0,0,43,42.8v64.4a5.16,5.16,0,0,0,5.16,5.16h53.67A5.16,5.16,0,0,0,107,107.2V42.8a5.16,5.16,0,0,0-5.16-5.16H48.17Z"/><path class="cls-1" d="M75.44,110.15a3.79,3.79,0,1,1,3.79-3.79A3.79,3.79,0,0,1,75.44,110.15Zm0-4a0.21,0.21,0,0,0-.21.21c0,0.23.42,0.23,0.42,0A0.21,0.21,0,0,0,75.44,106.15Z"/><path class="cls-1" d="M80.42,82.36A2,2,0,0,1,79,81.78a5,5,0,0,0-7.12,0,2,2,0,0,1-2.83-2.83,9,9,0,0,1,12.78,0A2,2,0,0,1,80.42,82.36Z"/><path class="cls-1" d="M86.22,76.56A2,2,0,0,1,84.81,76a13.26,13.26,0,0,0-18.73,0,2,2,0,0,1-2.83-2.83,17.26,17.26,0,0,1,24.38,0A2,2,0,0,1,86.22,76.56Z"/><path class="cls-1" d="M92,70.75a2,2,0,0,1-1.41-.59,21.47,21.47,0,0,0-30.33,0,2,2,0,0,1-2.83-2.83,25.48,25.48,0,0,1,36,0A2,2,0,0,1,92,70.75Z"/></svg>