<svg id="Layer_1" data-name="Layer 1" xmlns="http://www.w3.org/2000/svg" viewBox="0 0 600 150"><defs><style>.cls-1{fill:#529299;}</style></defs><title>fig4icons</title><path class="cls-1" d="M103,115.49H47a5.51,5.51,0,0,1-5.5-5.5V80.25a2,2,0,0,1,2-2h3.25V66.5H43.51a2,2,0,0,1-2-2V40a5.51,5.51,0,0,1,5.5-5.5H84.14A5.49,5.49,0,0,1,87.85,36l18.86,17.29a5.51,5.51,0,0,1,1.78,4.05V110A5.51,5.51,0,0,1,103,115.49ZM45.51,82.25V110a1.5,1.5,0,0,0,1.5,1.5h56a1.5,1.5,0,0,0,1.5-1.5V57.29a1.5,1.5,0,0,0-.49-1.11L85.15,38.9a1.5,1.5,0,0,0-1-.39H47a1.5,1.5,0,0,0-1.5,1.5V62.5h3.25a2,2,0,0,1,2,2V80.25a2,2,0,0,1-2,2H45.51Z"/><path class="cls-1" d="M52,56a2,2,0,0,1-2-2V45a2,2,0,0,1,4,0v9A2,2,0,0,1,52,56Z"/><path class="cls-1" d="M59,56a2,2,0,0,1-2-2V45a2,2,0,0,1,4,0v9A2,2,0,0,1,59,56Z"/><path class="cls-1" d="M66,56a2,2,0,0,1-2-2V45a2,2,0,0,1,4,0v9A2,2,0,0,1,66,56Z"/><path class="cls-1" d="M96,106.74H61a2,2,0,0,1-2-2V94.25a2,2,0,0,1,2-2H96a2,2,0,0,1,2,2v10.5A2,2,0,0,1,96,106.74Zm-33-4H94v-6.5H63v6.5Z"/><path class="cls-1" d="M75,6A69,69,0,1,1,6,75,69.08,69.08,0,0,1,75,6m0-4a73,73,0,1,0,73,73A73,73,0,0,0,75,2h0Z"/></svg>