<svg id="Layer_1" data-name="Layer 1" xmlns="http://www.w3.org/2000/svg" viewBox="0 0 600 150"><defs><style>.cls-1{fill:#a5bf39;}</style></defs><title>TableIcons600px</title><path class="cls-1" d="M75,6A69,69,0,1,1,6,75,69.08,69.08,0,0,1,75,6m0-4a73,73,0,1,0,73,73A73,73,0,0,0,75,2h0Z"/><path class="cls-1" d="M62,81.55A2,2,0,0,1,60.55,81a20.44,20.44,0,0,1,0-28.91,2,2,0,0,1,2.83,2.83,16.44,16.44,0,0,0,0,23.25A2,2,0,0,1,62,81.55Z"/><path class="cls-1" d="M88,81.55a2,2,0,0,1-1.41-3.41,16.44,16.44,0,0,0,0-23.25,2,2,0,0,1,2.83-2.83,20.44,20.44,0,0,1,0,28.91A2,2,0,0,1,88,81.55Z"/><path class="cls-1" d="M55.33,88.19a2,2,0,0,1-1.41-.59,29.86,29.86,0,0,1,0-42.18,2,2,0,0,1,2.83,2.83,25.85,25.85,0,0,0,0,36.52A2,2,0,0,1,55.33,88.19Z"/><path class="cls-1" d="M94.67,88.19a2,2,0,0,1-1.41-3.41,25.85,25.85,0,0,0,0-36.52,2,2,0,0,1,2.83-2.83,29.86,29.86,0,0,1,0,42.18A2,2,0,0,1,94.67,88.19Z"/><path class="cls-1" d="M75,77.07A10.56,10.56,0,1,1,85.56,66.51,10.57,10.57,0,0,1,75,77.07ZM75,60a6.56,6.56,0,1,0,6.56,6.56A6.57,6.57,0,0,0,75,60Z"/><path class="cls-1" d="M75,117a2,2,0,0,1-2-2V75a2,2,0,0,1,4,0v40A2,2,0,0,1,75,117Z"/><path class="cls-1" d="M101.77,94.25a2,2,0,0,1-1.41-3.41,34.44,34.44,0,0,0,0-48.65,2,2,0,0,1,2.83-2.83,38.44,38.44,0,0,1,0,54.3A2,2,0,0,1,101.77,94.25Z"/><path class="cls-1" d="M48.23,94.25a2,2,0,0,1-1.41-.59,38.44,38.44,0,0,1,0-54.3,2,2,0,0,1,2.83,2.83,34.44,34.44,0,0,0,0,48.65A2,2,0,0,1,48.23,94.25Z"/></svg>