<svg id="Layer_1" data-name="Layer 1" xmlns="http://www.w3.org/2000/svg" viewBox="0 0 600 150"><defs><style>.cls-1{fill:#a5bf39;}</style></defs><title>TableIcons600px</title><path class="cls-1" d="M75,6A69,69,0,1,1,6,75,69.08,69.08,0,0,1,75,6m0-4a73,73,0,1,0,73,73A73,73,0,0,0,75,2h0Z"/><path class="cls-1" d="M85,108H64a2,2,0,0,1-2-2V87H43a2,2,0,0,1-2-2V64a2,2,0,0,1,2-2H62V43a2,2,0,0,1,2-2H85a2,2,0,0,1,2,2V62h19a2,2,0,0,1,2,2V85a2,2,0,0,1-2,2H87v19A2,2,0,0,1,85,108Zm-19-4H83V85a2,2,0,0,1,2-2h19V66H85a2,2,0,0,1-2-2V45H66V64a2,2,0,0,1-2,2H45V83H64a2,2,0,0,1,2,2v19Z"/></svg>