<svg id="Layer_1" data-name="Layer 1" xmlns="http://www.w3.org/2000/svg" viewBox="0 0 600 150"><defs><style>.cls-1{fill:#a5bf39;}</style></defs><title>TableIcons600px</title><path class="cls-1" d="M75,6A69,69,0,1,1,6,75,69.08,69.08,0,0,1,75,6m0-4a73,73,0,1,0,73,73A73,73,0,0,0,75,2h0Z"/><path class="cls-1" d="M64.86,80a2,2,0,0,1-1.08-.32L42,65.64a2,2,0,0,1,.11-3.43l42.1-23.39a2,2,0,0,1,1.87,0l21.83,10.92a2,2,0,0,1,.17,3.48L91.13,63.81A2,2,0,1,1,89,60.43l13.9-8.75L85.18,42.82,46.93,64.08,64.88,75.62l12.64-8A2,2,0,0,1,79.64,71L65.93,79.68A2,2,0,0,1,64.86,80Z"/><path class="cls-1" d="M64.86,87.78a2,2,0,0,1-1.08-.32L42,73.43A2,2,0,0,1,42.14,70l6.24-3.12a2,2,0,0,1,1.79,3.58L47.07,72,64.88,83.41l12.68-8a2,2,0,0,1,2.13,3.38L65.93,87.48A2,2,0,0,1,64.86,87.78Z"/><path class="cls-1" d="M90,71.94A2,2,0,0,1,89,68.24l14.32-9-2.11-1.41a2,2,0,1,1,2.22-3.33l4.68,3.12A2,2,0,0,1,108,61L91.1,71.63A2,2,0,0,1,90,71.94Z"/><path class="cls-1" d="M64.86,95.58a2,2,0,0,1-1.08-.32L42,81.23a2,2,0,0,1,.19-3.47l6.24-3.12a2,2,0,1,1,1.79,3.58l-3.09,1.55,17.8,11.45,12.86-8.1a2,2,0,0,1,2.13,3.38L65.93,95.27A2,2,0,0,1,64.86,95.58Z"/><path class="cls-1" d="M90,79.76a2,2,0,0,1-1.07-3.69l14.37-9-2.11-1.41a2,2,0,1,1,2.22-3.33l4.68,3.12a2,2,0,0,1,0,3.36l-17,10.69A2,2,0,0,1,90,79.76Z"/><path class="cls-1" d="M64.86,103.38a2,2,0,0,1-1.08-.32L42,89a2,2,0,0,1,.19-3.47l6.24-3.12A2,2,0,0,1,50.17,86l-3.1,1.55L64.88,99l12.82-8.07a2,2,0,1,1,2.13,3.38l-13.89,8.75A2,2,0,0,1,64.86,103.38Z"/><path class="cls-1" d="M90,87.58a2,2,0,0,1-1.07-3.69l14.39-9.06-2.11-1.41a2,2,0,1,1,2.22-3.33l4.68,3.12a2,2,0,0,1,0,3.36L91,87.27A2,2,0,0,1,90,87.58Z"/><path class="cls-1" d="M64.86,111.17a2,2,0,0,1-1.08-.32L42,96.82a2,2,0,0,1,.19-3.47l6.24-3.12a2,2,0,1,1,1.79,3.58l-3.09,1.55,17.8,11.45,38.41-24.19-2.11-1.41a2,2,0,1,1,2.22-3.33L108.08,81a2,2,0,0,1,0,3.36l-42.1,26.51A2,2,0,0,1,64.86,111.17Z"/><path class="cls-1" d="M78.9,101.95a2,2,0,0,1-2-2V70.32a1.13,1.13,0,0,0-.45-0.9L59,56.33a2,2,0,1,1,2.4-3.2l17.46,13.1a5.14,5.14,0,0,1,2,4.09V99.95A2,2,0,0,1,78.9,101.95Z"/><path class="cls-1" d="M90,94.64a2,2,0,0,1-2-2l-0.19-30.1a1.12,1.12,0,0,0-.46-0.9L71.48,50.11a2,2,0,1,1,2.35-3.23L89.71,58.42a5.14,5.14,0,0,1,2.11,4.11L92,92.63a2,2,0,0,1-2,2h0Z"/></svg>