<svg id="Layer_1" data-name="Layer 1" xmlns="http://www.w3.org/2000/svg" viewBox="0 0 600 150"><defs><style>.cls-1{fill:#a5bf39;}</style></defs><title>TableIcons600px</title><path class="cls-1" d="M75,6A69,69,0,1,1,6,75,69.08,69.08,0,0,1,75,6m0-4a73,73,0,1,0,73,73A73,73,0,0,0,75,2h0Z"/><path class="cls-1" d="M69.1,114.13a7.94,7.94,0,0,1-7.94-7.93v-2a2,2,0,0,1,4,0v2a3.94,3.94,0,0,0,7.87,0V73.48a2,2,0,0,1,4,0V106.2A7.94,7.94,0,0,1,69.1,114.13Z"/><path class="cls-1" d="M107,75H43.73a2,2,0,0,1-2-2c0-18.24,15.41-33.65,33.65-33.65S109,54.76,109,73A2,2,0,0,1,107,75ZM45.8,71H105A30.09,30.09,0,0,0,75.39,43.35,30.09,30.09,0,0,0,45.8,71Z"/><path class="cls-1" d="M75,41a2,2,0,0,1-2-2V36a2,2,0,0,1,4,0v3A2,2,0,0,1,75,41Z"/></svg>