<svg id="Layer_1" data-name="Layer 1" xmlns="http://www.w3.org/2000/svg" viewBox="0 0 600 150"><defs><style>.cls-1{fill:#a5bf39;}</style></defs><title>TableIcons600px</title><path class="cls-1" d="M75,6A69,69,0,1,1,6,75,69.08,69.08,0,0,1,75,6m0-4a73,73,0,1,0,73,73A73,73,0,0,0,75,2h0Z"/><path class="cls-1" d="M113.84,89h-7a2,2,0,0,1-2-1.94,7.78,7.78,0,0,0-15.55,0,2,2,0,0,1-2,1.94H62.72a2,2,0,0,1-2-1.94,7.78,7.78,0,0,0-15.55,0,2,2,0,0,1-2,1.94h-7C31.11,89,27,85.31,27,80.77V73.09A9.49,9.49,0,0,1,36.16,64h77.67A9.49,9.49,0,0,1,123,73.09v7.67C123,85.31,118.89,89,113.84,89Zm-5.23-4h5.23c2.48,0,5.16-1.62,5.16-4.23V73.09A5.48,5.48,0,0,0,113.84,68H36.16A5.48,5.48,0,0,0,31,73.09v7.67C31,83.38,33.68,85,36.16,85h5.23a11.76,11.76,0,0,1,23.1,0h21A11.76,11.76,0,0,1,108.61,85Z"/><path class="cls-1" d="M52.94,99.4a11.93,11.93,0,0,1-11.87-11.9c0-.07-0.07-0.15-0.07-0.22V87a2.15,2.15,0,0,1,2.17-2h0a2,2,0,0,1,2,2,1.14,1.14,0,0,1,0,.18s0-.18,0-0.18h0a7.5,7.5,0,0,0,7.79,7.93A7.54,7.54,0,0,0,60.73,87h0s0,0.18,0,.16,0-.14,0-0.27a1.91,1.91,0,0,1,2-1.89h0A2.26,2.26,0,0,1,65,87v0.22c0,0.07-.13.15-0.13,0.22A12,12,0,0,1,52.94,99.4Z"/><path class="cls-1" d="M62.71,89a2,2,0,0,1-2-1.94,7.78,7.78,0,0,0-15.55,0,2,2,0,1,1-4-.11,11.78,11.78,0,0,1,23.55,0A2,2,0,0,1,62.77,89H62.71Z"/><path class="cls-1" d="M97.06,99.4a12,12,0,0,1-11.93-11.9c0-.07-0.13-0.15-0.13-0.22V87a2.26,2.26,0,0,1,2.28-2h0a2,2,0,0,1,2,2,1.13,1.13,0,0,1,0,.18s0-.18,0-0.18h0a7.79,7.79,0,1,0,15.58,0h0s0,0.18,0,.16,0-.14,0-0.27a1.91,1.91,0,0,1,2-1.89h0A2.15,2.15,0,0,1,109,87v0.22c0,0.07-.07.15-0.07,0.22A12,12,0,0,1,97.06,99.4Z"/><path class="cls-1" d="M106.83,89a2,2,0,0,1-2-1.94,7.78,7.78,0,0,0-15.55,0,2,2,0,1,1-4-.11,11.78,11.78,0,0,1,23.55,0A2,2,0,0,1,106.89,89h-0.06Z"/><path class="cls-1" d="M41.65,68.13a2,2,0,0,1-1.59-3.21L52.29,48.77a12.39,12.39,0,0,1,9.82-4.88h26.5a12.36,12.36,0,0,1,10,5.07l11.26,15.46a2,2,0,1,1-3.23,2.35L95.34,51.31a8.35,8.35,0,0,0-6.73-3.42H62.12a8.37,8.37,0,0,0-6.64,3.3L43.24,67.34A2,2,0,0,1,41.65,68.13Z"/><path class="cls-1" d="M75,68a2,2,0,0,1-2-2V46a2,2,0,0,1,4,0V66A2,2,0,0,1,75,68Z"/></svg>