<svg id="Layer_1" data-name="Layer 1" xmlns="http://www.w3.org/2000/svg" viewBox="0 0 600 150"><defs><style>.cls-1{fill:#a5bf39;}</style></defs><title>TableIcons600px</title><path class="cls-1" d="M75,6A69,69,0,1,1,6,75,69.08,69.08,0,0,1,75,6m0-4a73,73,0,1,0,73,73A73,73,0,0,0,75,2h0Z"/><path class="cls-1" d="M101.9,110.13H48.1a7.53,7.53,0,0,1-7.47-8.46l6-47.9a7.54,7.54,0,0,1,7.47-6.59H95.91a7.54,7.54,0,0,1,7.47,6.59l6,47.9A7.53,7.53,0,0,1,101.9,110.13Zm-47.81-59a3.53,3.53,0,0,0-3.5,3.09l-6,47.9a3.53,3.53,0,0,0,3.5,4h53.8a3.53,3.53,0,0,0,3.5-4l-6-47.9a3.53,3.53,0,0,0-3.5-3.09H54.09Z"/><path class="cls-1" d="M89.74,49.2a2,2,0,0,1-2-2,12.74,12.74,0,0,0-25.48,0,2,2,0,0,1-4,0,16.74,16.74,0,0,1,33.48,0A2,2,0,0,1,89.74,49.2Z"/><path class="cls-1" d="M82.37,49.2a2,2,0,0,1-2-2,5.37,5.37,0,0,0-10.74,0,2,2,0,0,1-4,0,9.37,9.37,0,0,1,18.74,0A2,2,0,0,1,82.37,49.2Z"/></svg>