<svg id="Layer_1" data-name="Layer 1" xmlns="http://www.w3.org/2000/svg" viewBox="0 0 600 150"><defs><style>.cls-1{fill:#a5bf39;}</style></defs><title>TableIcons600px</title><path class="cls-1" d="M75,6A69,69,0,1,1,6,75,69.08,69.08,0,0,1,75,6m0-4a73,73,0,1,0,73,73A73,73,0,0,0,75,2h0Z"/><path class="cls-1" d="M104,109H85a2,2,0,0,1-2-2V83H67v24a2,2,0,0,1-2,2H46a2,2,0,0,1-2-2V62a2,2,0,0,1,4,0v43H63V81a2,2,0,0,1,2-2H85a2,2,0,0,1,2,2v24h15V62a2,2,0,0,1,4,0v45A2,2,0,0,1,104,109Z"/><path class="cls-1" d="M112.82,71.24a2,2,0,0,1-1.35-.52L75,37.4,38.53,70.72a2,2,0,0,1-2.7-3L73.65,33.22a2,2,0,0,1,2.7,0l37.82,34.55A2,2,0,0,1,112.82,71.24Z"/><path class="cls-1" d="M75,36.86a2,2,0,0,1-1.41-.59,1.4,1.4,0,0,1-.25-0.3,1.63,1.63,0,0,1-.19-0.34A2.2,2.2,0,0,1,73,34.86a1.7,1.7,0,0,1,0-.39,2.22,2.22,0,0,1,.11-0.37,2.33,2.33,0,0,1,.19-0.35,1.4,1.4,0,0,1,.25-0.3,1.39,1.39,0,0,1,.3-0.25A2.24,2.24,0,0,1,74.23,33a2.78,2.78,0,0,1,.38-0.11,2.05,2.05,0,0,1,.78,0,2.79,2.79,0,0,1,.38.11,2.24,2.24,0,0,1,.34.19,1.39,1.39,0,0,1,.3.25,1.4,1.4,0,0,1,.25.3,2.28,2.28,0,0,1,.19.35,1.57,1.57,0,0,1,.11.37,1.73,1.73,0,0,1,0,.39,1.68,1.68,0,0,1,0,.39,1.65,1.65,0,0,1-.11.38,1.63,1.63,0,0,1-.19.34,1.4,1.4,0,0,1-.25.3,1.84,1.84,0,0,1-.3.26,2.86,2.86,0,0,1-.34.18,1.64,1.64,0,0,1-.38.11A1.7,1.7,0,0,1,75,36.86Z"/><path class="cls-1" d="M75,69.81a9.16,9.16,0,1,1,9.16-9.16A9.17,9.17,0,0,1,75,69.81Zm0-14.33a5.16,5.16,0,1,0,5.16,5.16A5.17,5.17,0,0,0,75,55.49Z"/></svg>