<?xml version="1.0" encoding="utf-8"?>
<!-- Generator: Adobe Illustrator 20.0.0, SVG Export Plug-In . SVG Version: 6.00 Build 0)  -->
<svg version="1.1" id="Layer_1" xmlns="http://www.w3.org/2000/svg" xmlns:xlink="http://www.w3.org/1999/xlink" x="0px" y="0px"
	 viewBox="0 0 855.8 1018.7" style="enable-background:new 0 0 855.8 1018.7;" xml:space="preserve">
<style type="text/css">
	.st0{fill:#4C4D4D;}
	.st1{fill:#4C4243;}
	.st2{opacity:0.75;fill:#EFEFEF;}
	.st3{opacity:0.5;fill:#4C4243;}
	.st4{fill:#E4E4E4;}
	.st5{fill:#FC5B5F;}
	.st6{opacity:0.5;fill:#FC5B5F;}
	.st7{fill:none;stroke:#4C4D4D;stroke-width:2;stroke-miterlimit:10;}
</style>
<g>
	<path class="st0" d="M400.1,602.6h4.5l9.6,22.6h-5.2l-2-5h-9.5l-2,5h-5L400.1,602.6z M405.3,615.8l-3-7.3l-3,7.3H405.3z"/>
	<path class="st0" d="M416.5,628.6l1.7-3.6c1.8,1,3.5,1.6,5.8,1.6c3.3,0,4.9-1.6,4.9-4.7V621c-1.4,1.7-3,2.8-5.6,2.8
		c-4,0-7.6-2.9-7.6-8v-0.1c0-5.1,3.7-8,7.6-8c2.7,0,4.2,1.1,5.5,2.6V608h4.9v13.3c0,3.1-0.7,5.3-2.2,6.8c-1.6,1.6-4.1,2.3-7.4,2.3
		C421.3,630.4,418.7,629.7,416.5,628.6z M428.9,615.8L428.9,615.8c0-2.4-1.8-4-4.2-4c-2.4,0-4.2,1.6-4.2,4v0.1c0,2.4,1.8,4,4.2,4
		C427,619.8,428.9,618.1,428.9,615.8z"/>
	<path class="st0" d="M437.2,616.7L437.2,616.7c0-5,3.5-9,8.5-9c5.7,0,8.4,4.4,8.4,9.3c0,0.4,0,0.8-0.1,1.3H442
		c0.5,2.2,2,3.4,4.2,3.4c1.6,0,2.8-0.5,4.2-1.8l2.8,2.5c-1.6,2-3.9,3.2-7,3.2C441,625.6,437.2,622,437.2,616.7z M449.3,615.3
		c-0.3-2.2-1.6-3.6-3.6-3.6c-2,0-3.3,1.4-3.7,3.6H449.3z"/>
</g>
<g>
	<path class="st0" d="M115.8,672.8l-4,1.2l-0.6-1.9l5.1-1.8h1.7v21.1h-2.3V672.8z"/>
	<path class="st0" d="M122.8,685.8L122.8,685.8c0-2.5,1.8-4.3,4.3-5.2c-2-0.9-3.6-2.4-3.6-4.8v-0.1c0-3.2,3.3-5.5,7.2-5.5
		s7.2,2.3,7.2,5.5v0.1c0,2.4-1.6,3.9-3.6,4.8c2.5,0.9,4.3,2.6,4.3,5.1v0.1c0,3.6-3.4,6-7.9,6S122.8,689.3,122.8,685.8z M136.1,685.7
		L136.1,685.7c0-2.4-2.4-4-5.5-4c-3.1,0-5.5,1.7-5.5,4v0.1c0,2.1,2,3.9,5.5,3.9S136.1,687.9,136.1,685.7z M135.4,675.9L135.4,675.9
		c0-2.1-2.1-3.7-4.8-3.7s-4.8,1.5-4.8,3.6v0.1c0,2.3,2.1,3.8,4.8,3.8S135.4,678.2,135.4,675.9z"/>
	<path class="st0" d="M142,681.2h8.3v2.4H142V681.2z"/>
	<path class="st0" d="M153.8,689.6l7.6-6.7c3.2-2.9,4.4-4.5,4.4-6.6c0-2.5-1.9-4-4.2-4c-2.4,0-4,1.3-5.6,3.6l-1.7-1.3
		c1.9-2.8,3.9-4.5,7.6-4.5c3.8,0,6.5,2.5,6.5,5.9v0.1c0,3.1-1.6,5-5.3,8.2l-5.6,5h11.1v2.2h-14.7V689.6z"/>
	<path class="st0" d="M182.5,686.5h-11.1l-0.6-1.7l11.9-14.4h2.1v14.2h3.2v2h-3.2v5h-2.3V686.5z M182.5,684.5v-10.8l-8.8,10.8H182.5
		z"/>
	<path class="st0" d="M104.3,734.6l7.6-6.7c3.2-2.9,4.4-4.5,4.4-6.6c0-2.5-1.9-4-4.2-4c-2.4,0-4,1.3-5.6,3.6l-1.7-1.3
		c1.9-2.8,3.9-4.5,7.6-4.5c3.8,0,6.5,2.5,6.5,5.9v0.1c0,3.1-1.6,5-5.3,8.2l-5.6,5H119v2.2h-14.7V734.6z"/>
	<path class="st0" d="M122.4,733.5l1.6-1.7c1.8,1.8,3.8,2.9,6,2.9c3,0,5.1-2,5.1-4.7v-0.1c0-2.6-2.2-4.4-5.2-4.4
		c-1.8,0-3.2,0.5-4.4,1.2l-1.6-1l0.6-10.2h12.1v2.2h-10l-0.4,6.7c1.2-0.5,2.4-0.9,4.1-0.9c4.1,0,7.3,2.4,7.3,6.4v0.1
		c0,4.1-3.1,6.9-7.5,6.9C126.9,736.8,124.3,735.4,122.4,733.5z"/>
	<path class="st0" d="M141.1,726.2h8.3v2.4h-8.3V726.2z"/>
	<path class="st0" d="M152.6,733.1l1.7-1.5c1.6,2,3.5,3.1,6.1,3.1c2.6,0,4.6-1.6,4.6-4.1v-0.1c0-2.6-2.4-4-5.9-4h-1.4l-0.5-1.4
		l6.6-7.5h-10.3v-2.1h13.4v1.7l-6.6,7.3c3.7,0.3,6.9,2.1,6.9,5.9v0.1c0,3.8-3.1,6.3-7,6.3C157,736.8,154.3,735.3,152.6,733.1z"/>
	<path class="st0" d="M182.5,731.5h-11.1l-0.6-1.7l11.9-14.4h2.1v14.2h3.2v2h-3.2v5h-2.3V731.5z M182.5,729.5v-10.8l-8.8,10.8H182.5
		z"/>
	<path class="st0" d="M102.1,778.1l1.7-1.5c1.6,2,3.5,3.1,6.1,3.1c2.6,0,4.6-1.6,4.6-4.1v-0.1c0-2.6-2.4-4-5.9-4h-1.4l-0.5-1.4
		l6.6-7.5h-10.3v-2.1h13.4v1.7l-6.6,7.3c3.7,0.3,6.9,2.1,6.9,5.9v0.1c0,3.8-3.1,6.3-7,6.3C106.4,781.8,103.8,780.3,102.1,778.1z"/>
	<path class="st0" d="M120.4,778.5l1.6-1.7c1.8,1.8,3.8,2.9,6,2.9c3,0,5.1-2,5.1-4.7v-0.1c0-2.6-2.2-4.4-5.2-4.4
		c-1.8,0-3.2,0.5-4.4,1.2l-1.6-1l0.6-10.2h12.1v2.2h-10l-0.4,6.7c1.2-0.5,2.4-0.9,4.1-0.9c4.1,0,7.3,2.4,7.3,6.4v0.1
		c0,4.1-3.1,6.9-7.5,6.9C124.9,781.8,122.3,780.4,120.4,778.5z"/>
	<path class="st0" d="M139.1,771.2h8.3v2.4h-8.3V771.2z"/>
	<path class="st0" d="M162.4,776.5h-11.1l-0.6-1.7l11.9-14.4h2.1v14.2h3.2v2h-3.2v5h-2.3V776.5z M162.4,774.5v-10.8l-8.8,10.8H162.4
		z"/>
	<path class="st0" d="M182.5,776.5h-11.1l-0.6-1.7l11.9-14.4h2.1v14.2h3.2v2h-3.2v5h-2.3V776.5z M182.5,774.5v-10.8l-8.8,10.8H182.5
		z"/>
	<path class="st0" d="M113.4,821.5h-11.1l-0.6-1.7l11.9-14.4h2.1v14.2h3.2v2h-3.2v5h-2.3V821.5z M113.4,819.5v-10.8l-8.8,10.8H113.4
		z"/>
	<path class="st0" d="M122.2,823.5l1.6-1.7c1.8,1.8,3.8,2.9,6,2.9c3,0,5.1-2,5.1-4.7v-0.1c0-2.6-2.2-4.4-5.2-4.4
		c-1.8,0-3.2,0.5-4.4,1.2l-1.6-1l0.6-10.2h12.1v2.2h-10l-0.4,6.7c1.2-0.5,2.4-0.9,4.1-0.9c4.1,0,7.3,2.4,7.3,6.4v0.1
		c0,4.1-3.1,6.9-7.5,6.9C126.7,826.8,124,825.4,122.2,823.5z"/>
	<path class="st0" d="M140.9,816.2h8.3v2.4h-8.3V816.2z"/>
	<path class="st0" d="M152.8,823.5l1.6-1.7c1.8,1.8,3.8,2.9,6,2.9c3,0,5.1-2,5.1-4.7v-0.1c0-2.6-2.2-4.4-5.2-4.4
		c-1.8,0-3.2,0.5-4.4,1.2l-1.6-1l0.6-10.2h12.1v2.2h-10l-0.4,6.7c1.2-0.5,2.4-0.9,4.1-0.9c4.1,0,7.3,2.4,7.3,6.4v0.1
		c0,4.1-3.1,6.9-7.5,6.9C157.3,826.8,154.6,825.4,152.8,823.5z"/>
	<path class="st0" d="M182.5,821.5h-11.1l-0.6-1.7l11.9-14.4h2.1v14.2h3.2v2h-3.2v5h-2.3V821.5z M182.5,819.5v-10.8l-8.8,10.8H182.5
		z"/>
	<path class="st0" d="M102.7,868.5l1.6-1.7c1.8,1.8,3.8,2.9,6,2.9c3,0,5.1-2,5.1-4.7v-0.1c0-2.6-2.2-4.4-5.2-4.4
		c-1.8,0-3.2,0.5-4.4,1.2l-1.6-1l0.6-10.2h12.1v2.2h-10l-0.4,6.7c1.2-0.5,2.4-0.9,4.1-0.9c4.1,0,7.3,2.4,7.3,6.4v0.1
		c0,4.1-3.1,6.9-7.5,6.9C107.2,871.8,104.6,870.4,102.7,868.5z"/>
	<path class="st0" d="M121.1,868.5l1.6-1.7c1.8,1.8,3.8,2.9,6,2.9c3,0,5.1-2,5.1-4.7v-0.1c0-2.6-2.2-4.4-5.2-4.4
		c-1.8,0-3.2,0.5-4.4,1.2l-1.6-1l0.6-10.2h12.1v2.2h-10l-0.4,6.7c1.2-0.5,2.4-0.9,4.1-0.9c4.1,0,7.3,2.4,7.3,6.4v0.1
		c0,4.1-3.1,6.9-7.5,6.9C125.6,871.8,123,870.4,121.1,868.5z"/>
	<path class="st0" d="M139.8,861.2h8.3v2.4h-8.3V861.2z"/>
	<path class="st0" d="M154.6,869.7c-1.7-1.7-2.6-3.8-2.6-8.1v-0.1c0-6.4,3.2-11.4,8.7-11.4c2.5,0,4.4,0.9,6.2,2.4l-1.4,1.8
		c-1.6-1.3-3-2.1-4.9-2.1c-4,0-6.2,4.3-6.2,9v0.3c1.4-2,3.3-3.2,6-3.2c3.9,0,7.3,2.5,7.3,6.5v0.1c0,4-3.3,7-7.5,7
		C157.8,871.8,155.9,871,154.6,869.7z M165.2,864.9L165.2,864.9c0-2.6-2.1-4.6-5.1-4.6c-3.1,0-5.2,2.2-5.2,4.6v0.1
		c0,2.7,2.2,4.7,5.3,4.7S165.2,867.6,165.2,864.9z"/>
	<path class="st0" d="M182.5,866.5h-11.1l-0.6-1.7l11.9-14.4h2.1v14.2h3.2v2h-3.2v5h-2.3V866.5z M182.5,864.5v-10.8l-8.8,10.8H182.5
		z"/>
	<path class="st0" d="M137.6,914.7c-1.7-1.7-2.6-3.8-2.6-8.1v-0.1c0-6.4,3.2-11.4,8.7-11.4c2.5,0,4.4,0.9,6.2,2.4l-1.4,1.8
		c-1.6-1.3-3-2.1-4.9-2.1c-4,0-6.2,4.3-6.2,9v0.3c1.4-2,3.3-3.2,6-3.2c3.9,0,7.3,2.5,7.3,6.5v0.1c0,4-3.3,7-7.5,7
		C140.8,916.8,138.9,916,137.6,914.7z M148.2,909.9L148.2,909.9c0-2.6-2.1-4.6-5.1-4.6c-3.1,0-5.2,2.2-5.2,4.6v0.1
		c0,2.7,2.2,4.7,5.3,4.7S148.2,912.6,148.2,909.9z"/>
	<path class="st0" d="M154.1,913.5l1.6-1.7c1.8,1.8,3.8,2.9,6,2.9c3,0,5.1-2,5.1-4.7v-0.1c0-2.6-2.2-4.4-5.2-4.4
		c-1.8,0-3.2,0.5-4.4,1.2l-1.6-1l0.6-10.2h12.1v2.2h-10l-0.4,6.7c1.2-0.5,2.4-0.9,4.1-0.9c4.1,0,7.3,2.4,7.3,6.4v0.1
		c0,4.1-3.1,6.9-7.5,6.9C158.6,916.8,156,915.4,154.1,913.5z"/>
	<path class="st0" d="M179.2,907h-6.2v-2.2h6.2v-6.2h2.2v6.2h6.2v2.2h-6.2v6.2h-2.2V907z"/>
</g>
<g>
	<path class="st0" d="M51.6,973.2v-12.2h2.4V973c0,4.5,2.4,7.1,6.4,7.1c3.9,0,6.3-2.3,6.3-6.9v-12.2H69v12c0,6.1-3.5,9.3-8.8,9.3
		C55.1,982.3,51.6,979.1,51.6,973.2z"/>
	<path class="st0" d="M74.3,966.4h2.3v2.7c1-1.7,2.6-3,5.3-3c3.7,0,5.9,2.5,5.9,6.2v9.6h-2.3v-9.1c0-2.9-1.6-4.7-4.3-4.7
		c-2.7,0-4.7,2-4.7,4.9v8.9h-2.3V966.4z"/>
	<path class="st0" d="M92.7,960h2.3v15.1l8.4-8.7h2.9l-6.5,6.7l6.7,8.8h-2.8l-5.5-7.2l-3.1,3.2v4h-2.3V960z"/>
	<path class="st0" d="M109.8,966.4h2.3v2.7c1-1.7,2.6-3,5.3-3c3.8,0,5.9,2.5,5.9,6.2v9.6h-2.3v-9.1c0-2.9-1.6-4.7-4.3-4.7
		c-2.7,0-4.6,2-4.6,4.9v8.9h-2.3V966.4z"/>
	<path class="st0" d="M127.3,974.3L127.3,974.3c0-4.4,3.4-8.2,8.1-8.2c4.7,0,8.1,3.7,8.1,8v0.1c0,4.4-3.4,8.1-8.1,8.1
		C130.7,982.3,127.3,978.6,127.3,974.3z M141.1,974.3L141.1,974.3c0-3.4-2.5-6.1-5.8-6.1c-3.4,0-5.7,2.7-5.7,6v0.1
		c0,3.3,2.5,6,5.7,6C138.8,980.2,141.1,977.5,141.1,974.3z"/>
	<path class="st0" d="M145.6,966.4h2.5l4.1,12.5l4.2-12.5h1.9l4.2,12.5l4.1-12.5h2.4l-5.5,15.6h-2l-4.2-12.2l-4.2,12.2h-2
		L145.6,966.4z"/>
	<path class="st0" d="M172.8,966.4h2.3v2.7c1-1.7,2.6-3,5.3-3c3.8,0,5.9,2.5,5.9,6.2v9.6H184v-9.1c0-2.9-1.6-4.7-4.3-4.7
		c-2.7,0-4.6,2-4.6,4.9v8.9h-2.3V966.4z"/>
</g>
<g>
	<path class="st0" d="M533.2,672.8l-4,1.2l-0.6-1.9l5.1-1.8h1.7v21.1h-2.3V672.8z"/>
	<path class="st0" d="M543,689.7c-1.7-1.7-2.6-3.8-2.6-8.1v-0.1c0-6.4,3.2-11.4,8.7-11.4c2.5,0,4.4,0.9,6.2,2.4l-1.4,1.8
		c-1.6-1.3-3-2.1-5-2.1c-4,0-6.2,4.3-6.2,9v0.3c1.4-2,3.3-3.2,6-3.2c3.9,0,7.3,2.5,7.3,6.5v0.1c0,4-3.3,7-7.5,7
		C546.2,691.8,544.3,691,543,689.7z M553.6,684.9L553.6,684.9c0-2.6-2.1-4.6-5.1-4.6c-3.2,0-5.2,2.2-5.2,4.6v0.1
		c0,2.7,2.2,4.7,5.3,4.7S553.6,687.6,553.6,684.9z"/>
	<path class="st0" d="M559.5,675.6L559.5,675.6c0-2.9,1.9-5.4,4.8-5.4c2.8,0,4.7,2.5,4.7,5.3v0.1c0,2.8-1.9,5.4-4.8,5.4
		S559.5,678.5,559.5,675.6z M561.5,675.5L561.5,675.5c0,2.2,1.2,3.8,2.8,3.8c1.6,0,2.7-1.6,2.7-3.6v-0.1c0-2.1-1.3-3.7-2.8-3.7
		C562.6,671.9,561.5,673.5,561.5,675.5z M577.1,670.4h2.1l-8.1,11l-7.3,10h-2.2l8.1-10.9L577.1,670.4z M571.9,686.4L571.9,686.4
		c0-2.9,1.9-5.4,4.8-5.4c2.9,0,4.7,2.5,4.7,5.3v0.1c0,2.8-1.9,5.4-4.8,5.4C573.8,691.7,571.9,689.2,571.9,686.4z M579.4,686.4
		L579.4,686.4c0-2.2-1.2-3.8-2.8-3.8c-1.6,0-2.7,1.6-2.7,3.6v0.1c0,2.1,1.2,3.7,2.8,3.7C578.3,690,579.4,688.4,579.4,686.4z"/>
</g>
<g>
	<path class="st0" d="M558.1,717.1l-4,1.2l-0.6-1.9l5.1-1.8h1.7v21.1h-2.3V717.1z"/>
	<path class="st0" d="M577.1,717h-11.5v-2.2h14.2v1.8l-9.5,19.2h-2.6L577.1,717z"/>
	<path class="st0" d="M583,720L583,720c0-2.9,1.9-5.4,4.8-5.4c2.8,0,4.7,2.5,4.7,5.3v0.1c0,2.8-1.9,5.4-4.8,5.4S583,722.8,583,720z
		 M585,719.9L585,719.9c0,2.2,1.2,3.8,2.8,3.8c1.6,0,2.7-1.6,2.7-3.6V720c0-2.1-1.3-3.7-2.8-3.7C586,716.3,585,717.9,585,719.9z
		 M600.5,714.8h2.1l-8.1,11l-7.3,10h-2.2l8.1-10.9L600.5,714.8z M595.3,730.8L595.3,730.8c0-2.9,1.9-5.4,4.8-5.4
		c2.8,0,4.7,2.5,4.7,5.3v0.1c0,2.8-1.9,5.4-4.8,5.4C597.2,736.1,595.3,733.6,595.3,730.8z M602.8,730.8L602.8,730.8
		c0-2.2-1.2-3.8-2.8-3.8c-1.6,0-2.7,1.6-2.7,3.6v0.1c0,2.1,1.2,3.7,2.8,3.7C601.8,734.4,602.8,732.8,602.8,730.8z"/>
</g>
<g>
	<path class="st0" d="M494.2,759.6l-4,1.2l-0.6-1.9l5.1-1.8h1.7v21.1h-2.3V759.6z"/>
	<path class="st0" d="M512.6,773.3h-11.1l-0.6-1.7l11.9-14.4h2.1v14.2h3.2v2h-3.2v5h-2.3V773.3z M512.6,771.3v-10.8l-8.8,10.8H512.6
		z"/>
	<path class="st0" d="M521.3,762.5L521.3,762.5c0-2.9,1.9-5.4,4.8-5.4c2.8,0,4.7,2.5,4.7,5.3v0.1c0,2.8-1.9,5.4-4.8,5.4
		S521.3,765.3,521.3,762.5z M523.3,762.3L523.3,762.3c0,2.2,1.2,3.8,2.8,3.8c1.6,0,2.7-1.6,2.7-3.6v-0.1c0-2.1-1.3-3.7-2.8-3.7
		C524.4,758.7,523.3,760.4,523.3,762.3z M538.9,757.3h2.1l-8.1,11l-7.3,10h-2.2l8.1-10.9L538.9,757.3z M533.7,773.2L533.7,773.2
		c0-2.9,1.9-5.4,4.8-5.4c2.8,0,4.7,2.5,4.7,5.3v0.1c0,2.8-1.9,5.4-4.8,5.4C535.6,778.5,533.7,776,533.7,773.2z M541.2,773.2
		L541.2,773.2c0-2.2-1.2-3.8-2.8-3.8c-1.6,0-2.7,1.6-2.7,3.6v0.1c0,2.1,1.2,3.7,2.8,3.7C540.1,776.8,541.2,775.2,541.2,773.2z"/>
</g>
<g>
	<path class="st0" d="M407.4,807l-4,1.2l-0.6-1.9l5.1-1.8h1.7v21.1h-2.3V807z"/>
	<path class="st0" d="M414.6,815.2L414.6,815.2c0-5.9,3.5-10.9,8.9-10.9c5.4,0,8.8,4.9,8.8,10.8v0.1c0,5.9-3.5,10.9-8.9,10.9
		C418,826,414.6,821.1,414.6,815.2z M429.9,815.2L429.9,815.2c0-4.7-2.5-8.8-6.4-8.8c-3.9,0-6.4,4-6.4,8.6v0.1
		c0,4.6,2.5,8.7,6.4,8.7S429.9,819.8,429.9,815.2z"/>
	<path class="st0" d="M435.8,809.9L435.8,809.9c0-2.9,1.9-5.4,4.8-5.4c2.8,0,4.7,2.5,4.7,5.3v0.1c0,2.8-1.9,5.4-4.8,5.4
		S435.8,812.7,435.8,809.9z M437.8,809.8L437.8,809.8c0,2.2,1.2,3.8,2.8,3.8c1.6,0,2.7-1.6,2.7-3.6v-0.1c0-2.1-1.3-3.7-2.8-3.7
		C438.9,806.1,437.8,807.8,437.8,809.8z M453.4,804.7h2.1l-8.1,11l-7.3,10h-2.2l8.1-10.9L453.4,804.7z M448.2,820.6L448.2,820.6
		c0-2.9,1.9-5.4,4.8-5.4c2.8,0,4.7,2.5,4.7,5.3v0.1c0,2.8-1.9,5.4-4.8,5.4C450.1,825.9,448.2,823.4,448.2,820.6z M455.7,820.6
		L455.7,820.6c0-2.2-1.2-3.8-2.8-3.8c-1.6,0-2.7,1.6-2.7,3.6v0.1c0,2.1,1.2,3.7,2.8,3.7C454.6,824.2,455.7,822.6,455.7,820.6z"/>
</g>
<g>
	<path class="st0" d="M359.9,864.3L359.9,864.3c0-2.5,1.8-4.3,4.3-5.2c-2-0.9-3.6-2.4-3.6-4.8v-0.1c0-3.2,3.3-5.5,7.2-5.5
		s7.2,2.3,7.2,5.5v0.1c0,2.4-1.6,3.9-3.6,4.8c2.5,0.9,4.3,2.6,4.3,5.1v0.1c0,3.6-3.4,6-7.9,6C363.3,870.2,359.9,867.8,359.9,864.3z
		 M373.3,864.2L373.3,864.2c0-2.4-2.4-4-5.5-4c-3.1,0-5.5,1.7-5.5,4v0.1c0,2.1,2,3.9,5.5,3.9C371.2,868.1,373.3,866.3,373.3,864.2z
		 M372.6,854.4L372.6,854.4c0-2.1-2.1-3.7-4.8-3.7c-2.7,0-4.8,1.5-4.8,3.6v0.1c0,2.3,2.1,3.8,4.8,3.8S372.6,856.7,372.6,854.4z"/>
	<path class="st0" d="M378.8,854.1L378.8,854.1c0-2.9,1.9-5.4,4.8-5.4c2.8,0,4.7,2.5,4.7,5.3v0.1c0,2.8-1.9,5.4-4.8,5.4
		S378.8,856.9,378.8,854.1z M380.8,854L380.8,854c0,2.2,1.2,3.8,2.8,3.8c1.6,0,2.7-1.6,2.7-3.6V854c0-2.1-1.3-3.7-2.8-3.7
		C381.9,850.4,380.8,852,380.8,854z M396.4,848.9h2.1l-8.1,11l-7.3,10H381l8.1-10.9L396.4,848.9z M391.2,864.8L391.2,864.8
		c0-2.9,1.9-5.4,4.8-5.4c2.8,0,4.7,2.5,4.7,5.3v0.1c0,2.8-1.9,5.4-4.8,5.4C393.1,870.2,391.2,867.7,391.2,864.8z M398.7,864.8
		L398.7,864.8c0-2.2-1.2-3.8-2.8-3.8c-1.6,0-2.7,1.6-2.7,3.6v0.1c0,2.1,1.2,3.7,2.8,3.7C397.6,868.5,398.7,866.9,398.7,864.8z"/>
</g>
<g>
	<path class="st0" d="M293.8,912.3l1.6-1.7c1.8,1.8,3.8,2.9,6,2.9c3,0,5.1-2,5.1-4.7v-0.1c0-2.6-2.2-4.4-5.2-4.4
		c-1.8,0-3.2,0.5-4.4,1.2l-1.6-1l0.6-10.2h12.1v2.2h-10l-0.5,6.7c1.2-0.5,2.4-0.9,4.1-0.9c4.1,0,7.3,2.4,7.3,6.4v0.1
		c0,4.1-3.1,6.9-7.5,6.9C298.3,915.6,295.7,914.2,293.8,912.3z"/>
	<path class="st0" d="M312.1,899.5L312.1,899.5c0-2.9,1.9-5.4,4.8-5.4c2.8,0,4.7,2.5,4.7,5.3v0.1c0,2.8-1.9,5.4-4.8,5.4
		S312.1,902.3,312.1,899.5z M314.2,899.3L314.2,899.3c0,2.2,1.2,3.8,2.8,3.8c1.6,0,2.7-1.6,2.7-3.6v-0.1c0-2.1-1.3-3.7-2.8-3.7
		C315.2,895.7,314.2,897.4,314.2,899.3z M329.7,894.3h2.1l-8.1,11l-7.3,10h-2.2l8.1-10.9L329.7,894.3z M324.5,910.2L324.5,910.2
		c0-2.9,1.9-5.4,4.8-5.4c2.9,0,4.7,2.5,4.7,5.3v0.1c0,2.8-1.9,5.4-4.8,5.4C326.4,915.5,324.5,913,324.5,910.2z M332,910.2L332,910.2
		c0-2.2-1.2-3.8-2.8-3.8c-1.6,0-2.7,1.6-2.7,3.6v0.1c0,2.1,1.2,3.7,2.8,3.7C331,913.8,332,912.2,332,910.2z"/>
</g>
<g>
	<path class="st0" d="M743.9,978.6l1.7-1.5c1.6,2,3.5,3.1,6.1,3.1c2.5,0,4.6-1.6,4.6-4.1V976c0-2.6-2.4-4-5.9-4h-1.3l-0.5-1.4
		l6.6-7.5H745v-2.1h13.4v1.7l-6.6,7.3c3.7,0.3,6.9,2.1,6.9,5.9v0.1c0,3.8-3.1,6.3-7,6.3C748.2,982.3,745.6,980.8,743.9,978.6z"/>
	<path class="st0" d="M762.7,971.5L762.7,971.5c0-5.9,3.5-10.9,8.9-10.9s8.8,4.9,8.8,10.8v0.1c0,5.9-3.5,10.9-8.9,10.9
		C766.1,982.3,762.7,977.4,762.7,971.5z M777.9,971.5L777.9,971.5c0-4.7-2.5-8.8-6.4-8.8c-3.9,0-6.4,4-6.4,8.6v0.1
		c0,4.6,2.5,8.7,6.5,8.7S777.9,976.1,777.9,971.5z"/>
	<path class="st0" d="M783.8,966.1L783.8,966.1c0-2.9,1.9-5.4,4.8-5.4c2.8,0,4.7,2.5,4.7,5.3v0.1c0,2.8-1.9,5.4-4.8,5.4
		S783.8,969,783.8,966.1z M785.8,966L785.8,966c0,2.2,1.2,3.8,2.8,3.8c1.6,0,2.7-1.6,2.7-3.6v-0.1c0-2.1-1.3-3.7-2.8-3.7
		C786.9,962.4,785.8,964,785.8,966z M801.4,960.9h2.1l-8.1,11l-7.3,10H786l8.1-10.9L801.4,960.9z M796.2,976.9L796.2,976.9
		c0-2.9,1.9-5.4,4.8-5.4c2.9,0,4.7,2.5,4.7,5.3v0.1c0,2.8-1.9,5.4-4.8,5.4C798.1,982.2,796.2,979.7,796.2,976.9z M803.7,976.9
		L803.7,976.9c0-2.2-1.2-3.8-2.8-3.8c-1.6,0-2.7,1.6-2.7,3.6v0.1c0,2.1,1.2,3.7,2.8,3.7C802.6,980.5,803.7,978.9,803.7,976.9z"/>
</g>
<rect x="211.2" y="665.4" class="st1" width="300.7" height="28.6"/>
<rect x="211.2" y="710.2" class="st1" width="326.1" height="28.6"/>
<rect x="211.2" y="755" class="st1" width="262.2" height="28.6"/>
<rect x="211.2" y="799.9" class="st1" width="172" height="28.6"/>
<rect x="211.2" y="844.7" class="st1" width="131.1" height="28.6"/>
<rect x="211.2" y="889.5" class="st1" width="65.6" height="28.6"/>
<rect x="210.2" y="958.8" class="st2" width="514.3" height="28.6"/>
<g>
	<path class="st0" d="M162.6,51.2L162.6,51.2c0-6.4,5-11.6,11.7-11.6c4,0,6.5,1.1,8.8,3.1l-3.1,3.7c-1.7-1.4-3.3-2.3-5.9-2.3
		c-3.6,0-6.4,3.2-6.4,7v0.1c0,4.1,2.8,7.1,6.8,7.1c1.8,0,3.4-0.4,4.6-1.3v-3.2h-5v-4.3h9.7v9.7c-2.3,2-5.5,3.6-9.6,3.6
		C167.4,62.7,162.6,57.8,162.6,51.2z"/>
	<path class="st0" d="M187.4,53.8L187.4,53.8c0-5,3.5-9,8.5-9c5.7,0,8.4,4.4,8.4,9.3c0,0.4,0,0.8-0.1,1.3h-11.9
		c0.5,2.2,2,3.4,4.2,3.4c1.6,0,2.8-0.5,4.2-1.8l2.8,2.5c-1.6,2-3.9,3.2-7,3.2C191.2,62.7,187.4,59.1,187.4,53.8z M199.5,52.4
		c-0.3-2.2-1.6-3.6-3.6-3.6c-2,0-3.3,1.4-3.7,3.6H199.5z"/>
	<path class="st0" d="M207.8,45.2h4.9v2.4c1.1-1.4,2.6-2.8,5-2.8c3.7,0,5.8,2.4,5.8,6.4v11.1h-4.9v-9.6c0-2.3-1.1-3.5-2.9-3.5
		c-1.9,0-3,1.2-3,3.5v9.6h-4.9V45.2z"/>
	<path class="st0" d="M227,53.8L227,53.8c0-5.8,3.7-8.9,7.8-8.9c2.6,0,4.2,1.2,5.3,2.6v-8.4h4.9v23.4h-4.9v-2.5
		c-1.2,1.6-2.8,2.8-5.3,2.8C230.8,62.6,227,59.5,227,53.8z M240.2,53.8L240.2,53.8c0-2.9-1.9-4.8-4.2-4.8c-2.3,0-4.2,1.9-4.2,4.7
		v0.1c0,2.8,1.9,4.7,4.2,4.7C238.3,58.5,240.2,56.6,240.2,53.8z"/>
	<path class="st0" d="M248.5,53.8L248.5,53.8c0-5,3.5-9,8.5-9c5.7,0,8.4,4.4,8.4,9.3c0,0.4,0,0.8-0.1,1.3h-11.9
		c0.5,2.2,2,3.4,4.2,3.4c1.6,0,2.8-0.5,4.2-1.8l2.8,2.5c-1.6,2-3.9,3.2-7,3.2C252.3,62.7,248.5,59.1,248.5,53.8z M260.6,52.4
		c-0.3-2.2-1.6-3.6-3.6-3.6c-2,0-3.3,1.4-3.7,3.6H260.6z"/>
	<path class="st0" d="M269,45.2h4.9v3.5c1-2.4,2.6-3.9,5.5-3.8v5.1H279c-3.2,0-5.2,2-5.2,6v6.3H269V45.2z"/>
</g>
<g>
	<path class="st0" d="M507.6,38.6h9.2c5.3,0,8.6,3.2,8.6,7.7v0.1c0,5.2-4,7.9-9.1,7.9h-3.7V61h-4.9V38.6z M516.4,49.8
		c2.5,0,3.9-1.5,3.9-3.4v-0.1c0-2.2-1.5-3.4-4-3.4h-3.8v6.8H516.4z"/>
	<path class="st0" d="M527.1,56L527.1,56c0-3.8,2.8-5.5,6.9-5.5c1.7,0,3,0.3,4.2,0.7v-0.3c0-2-1.2-3.1-3.7-3.1
		c-1.9,0-3.2,0.4-4.7,0.9l-1.2-3.7c1.9-0.8,3.7-1.4,6.7-1.4c2.7,0,4.6,0.7,5.8,1.9c1.3,1.3,1.9,3.2,1.9,5.5v10h-4.7v-1.9
		c-1.2,1.3-2.8,2.2-5.2,2.2C529.7,61.3,527.1,59.4,527.1,56z M538.2,54.9V54c-0.8-0.4-1.9-0.6-3.1-0.6c-2.1,0-3.4,0.8-3.4,2.4v0.1
		c0,1.3,1.1,2.1,2.7,2.1C536.7,57.9,538.2,56.7,538.2,54.9z"/>
	<path class="st0" d="M547,43.8h4.9v3.5c1-2.4,2.6-3.9,5.5-3.8v5.1h-0.3c-3.2,0-5.2,2-5.2,6V61H547V43.8z"/>
	<path class="st0" d="M559.1,52.5L559.1,52.5c0-5,3.5-9,8.5-9c5.7,0,8.4,4.4,8.4,9.3c0,0.4,0,0.8-0.1,1.3h-11.9
		c0.5,2.2,2,3.4,4.2,3.4c1.6,0,2.8-0.5,4.2-1.8l2.8,2.5c-1.6,2-3.9,3.2-7,3.2C562.9,61.3,559.1,57.7,559.1,52.5z M571.2,51
		c-0.3-2.2-1.6-3.6-3.6-3.6c-2,0-3.3,1.4-3.7,3.6H571.2z"/>
	<path class="st0" d="M579.6,43.8h4.9v2.4c1.1-1.4,2.6-2.8,5-2.8c3.7,0,5.8,2.4,5.8,6.4V61h-4.9v-9.6c0-2.3-1.1-3.5-2.9-3.5
		c-1.9,0-3,1.2-3,3.5V61h-4.9V43.8z"/>
	<path class="st0" d="M600.3,56.1V48h-2v-4.2h2v-4.4h4.9v4.4h4V48h-4v7.3c0,1.1,0.5,1.7,1.6,1.7c0.9,0,1.7-0.2,2.4-0.6v3.9
		c-1,0.6-2.2,1-3.8,1C602.3,61.2,600.3,60.1,600.3,56.1z"/>
	<path class="st0" d="M611.7,56L611.7,56c0-3.8,2.8-5.5,6.9-5.5c1.7,0,3,0.3,4.2,0.7v-0.3c0-2-1.2-3.1-3.7-3.1
		c-1.9,0-3.2,0.4-4.7,0.9l-1.2-3.7c1.9-0.8,3.7-1.4,6.7-1.4c2.7,0,4.6,0.7,5.8,1.9c1.3,1.3,1.9,3.2,1.9,5.5v10h-4.7v-1.9
		c-1.2,1.3-2.8,2.2-5.2,2.2C614.4,61.3,611.7,59.4,611.7,56z M622.9,54.9V54c-0.8-0.4-1.9-0.6-3.1-0.6c-2.1,0-3.4,0.8-3.4,2.4v0.1
		c0,1.3,1.1,2.1,2.7,2.1C621.4,57.9,622.9,56.7,622.9,54.9z"/>
	<path class="st0" d="M631.9,37.6h4.9V61h-4.9V37.6z"/>
	<path class="st0" d="M649.9,57.7l2.9-3.5c2,1.7,4.1,2.7,6.7,2.7c2,0,3.2-0.8,3.2-2.1v-0.1c0-1.2-0.8-1.9-4.5-2.8
		c-4.5-1.2-7.4-2.4-7.4-6.8V45c0-4.1,3.3-6.8,7.8-6.8c3.3,0,6,1,8.3,2.8l-2.6,3.7c-2-1.4-3.9-2.2-5.8-2.2s-2.9,0.9-2.9,2v0.1
		c0,1.5,1,2,4.8,2.9c4.5,1.2,7.1,2.8,7.1,6.7v0.1c0,4.4-3.4,6.9-8.2,6.9C656.1,61.3,652.6,60.1,649.9,57.7z"/>
	<path class="st0" d="M672.1,56.1V48h-2v-4.2h2v-4.4h4.9v4.4h4V48h-4v7.3c0,1.1,0.5,1.7,1.6,1.7c0.9,0,1.7-0.2,2.4-0.6v3.9
		c-1,0.6-2.2,1-3.8,1C674.1,61.2,672.1,60.1,672.1,56.1z"/>
	<path class="st0" d="M683.5,56L683.5,56c0-3.8,2.8-5.5,6.9-5.5c1.7,0,3,0.3,4.2,0.7v-0.3c0-2-1.2-3.1-3.7-3.1
		c-1.9,0-3.2,0.4-4.7,0.9L685,45c1.9-0.8,3.7-1.4,6.7-1.4c2.7,0,4.6,0.7,5.8,1.9c1.3,1.3,1.9,3.2,1.9,5.5v10h-4.7v-1.9
		c-1.2,1.3-2.8,2.2-5.2,2.2C686.2,61.3,683.5,59.4,683.5,56z M694.7,54.9V54c-0.8-0.4-1.9-0.6-3.1-0.6c-2.1,0-3.4,0.8-3.4,2.4v0.1
		c0,1.3,1.1,2.1,2.7,2.1C693.2,57.9,694.7,56.7,694.7,54.9z"/>
	<path class="st0" d="M704.2,56.1V48h-2v-4.2h2v-4.4h4.9v4.4h4V48h-4v7.3c0,1.1,0.5,1.7,1.6,1.7c0.9,0,1.7-0.2,2.4-0.6v3.9
		c-1,0.6-2.2,1-3.8,1C706.2,61.2,704.2,60.1,704.2,56.1z"/>
	<path class="st0" d="M716.5,54.9V43.8h4.9v9.6c0,2.3,1.1,3.5,2.9,3.5c1.9,0,3-1.2,3-3.5v-9.6h4.9V61h-4.9v-2.4
		c-1.1,1.4-2.6,2.8-5,2.8C718.7,61.3,716.5,58.8,716.5,54.9z"/>
	<path class="st0" d="M735.2,58.7l2.1-3.2c1.9,1.3,3.8,2,5.4,2c1.4,0,2-0.5,2-1.3v-0.1c0-1.1-1.7-1.4-3.6-2
		c-2.4-0.7-5.1-1.8-5.1-5.2V49c0-3.5,2.8-5.4,6.3-5.4c2.2,0,4.5,0.7,6.4,2l-1.9,3.4c-1.7-1-3.4-1.6-4.6-1.6c-1.2,0-1.8,0.5-1.8,1.2
		v0.1c0,1,1.6,1.4,3.5,2c2.4,0.8,5.2,2,5.2,5.1v0.1c0,3.8-2.8,5.5-6.6,5.5C740.2,61.3,737.5,60.5,735.2,58.7z"/>
</g>
<g>
	<path class="st0" d="M713.1,390.2l7.6-6.7c3.2-2.9,4.4-4.5,4.4-6.6c0-2.5-2-4-4.2-4c-2.4,0-4,1.3-5.6,3.6l-1.7-1.3
		c1.9-2.8,3.9-4.5,7.6-4.5c3.8,0,6.5,2.5,6.5,5.9v0.1c0,3.1-1.6,5-5.3,8.2l-5.6,5h11.1v2.2h-14.7V390.2z"/>
	<path class="st0" d="M731.2,389.1l1.6-1.7c1.8,1.8,3.8,2.9,6,2.9c3,0,5.1-2,5.1-4.7v-0.1c0-2.6-2.2-4.4-5.2-4.4
		c-1.8,0-3.2,0.5-4.4,1.2l-1.6-1l0.6-10.2h12.1v2.2h-10l-0.5,6.7c1.2-0.5,2.4-0.9,4.1-0.9c4.1,0,7.3,2.4,7.3,6.4v0.1
		c0,4.1-3.1,6.9-7.5,6.9C735.7,392.4,733.1,391,731.2,389.1z"/>
	<path class="st0" d="M749.6,376.2L749.6,376.2c0-2.9,1.9-5.4,4.8-5.4c2.8,0,4.7,2.5,4.7,5.3v0.1c0,2.8-1.9,5.4-4.8,5.4
		S749.6,379,749.6,376.2z M751.6,376.1L751.6,376.1c0,2.2,1.2,3.8,2.8,3.8c1.6,0,2.7-1.6,2.7-3.6v-0.1c0-2.1-1.3-3.7-2.8-3.7
		C752.7,372.5,751.6,374.1,751.6,376.1z M767.2,371h2.1l-8.1,11l-7.3,10h-2.2l8.1-10.9L767.2,371z M762,387L762,387
		c0-2.9,1.9-5.4,4.8-5.4c2.8,0,4.7,2.5,4.7,5.3v0.1c0,2.8-1.9,5.4-4.8,5.4C763.9,392.3,762,389.8,762,387z M769.5,387L769.5,387
		c0-2.2-1.2-3.8-2.8-3.8c-1.6,0-2.7,1.6-2.7,3.6v0.1c0,2.1,1.2,3.7,2.8,3.7C768.4,390.6,769.5,389,769.5,387z"/>
	<path class="st0" d="M724.6,426h-11.1l-0.6-1.7l11.9-14.4h2.1V424h3.2v2H727v5h-2.3V426z M724.6,424v-10.8l-8.8,10.8H724.6z"/>
	<path class="st0" d="M744.3,412.2h-11.5V410H747v1.8l-9.5,19.2h-2.6L744.3,412.2z"/>
	<path class="st0" d="M750.1,415.2L750.1,415.2c0-2.9,1.9-5.4,4.8-5.4c2.8,0,4.7,2.5,4.7,5.3v0.1c0,2.8-1.9,5.4-4.8,5.4
		S750.1,418,750.1,415.2z M752.2,415.1L752.2,415.1c0,2.2,1.2,3.8,2.8,3.8c1.6,0,2.7-1.6,2.7-3.6v-0.1c0-2.1-1.3-3.7-2.8-3.7
		C753.2,411.4,752.2,413.1,752.2,415.1z M767.7,410h2.1l-8.1,11l-7.3,10h-2.2l8.1-10.9L767.7,410z M762.5,425.9L762.5,425.9
		c0-2.9,1.9-5.4,4.8-5.4c2.8,0,4.7,2.5,4.7,5.3v0.1c0,2.8-1.9,5.4-4.8,5.4C764.4,431.2,762.5,428.8,762.5,425.9z M770,425.9
		L770,425.9c0-2.2-1.2-3.8-2.8-3.8c-1.6,0-2.7,1.6-2.7,3.6v0.1c0,2.1,1.2,3.7,2.8,3.7C769,429.6,770,427.9,770,425.9z"/>
	<path class="st0" d="M713.1,468.1l7.6-6.7c3.2-2.9,4.4-4.5,4.4-6.6c0-2.5-2-4-4.2-4c-2.4,0-4,1.3-5.6,3.6l-1.7-1.3
		c1.9-2.8,3.9-4.5,7.6-4.5c3.8,0,6.5,2.5,6.5,5.9v0.1c0,3.1-1.6,5-5.3,8.2l-5.6,5h11.1v2.2h-14.7V468.1z"/>
	<path class="st0" d="M731.2,464.3L731.2,464.3c0-2.5,1.8-4.3,4.3-5.2c-2-0.9-3.6-2.4-3.6-4.8v-0.1c0-3.2,3.3-5.5,7.2-5.5
		s7.2,2.3,7.2,5.5v0.1c0,2.4-1.6,3.9-3.6,4.8c2.5,0.9,4.3,2.6,4.3,5.1v0.1c0,3.6-3.4,6-7.9,6C734.6,470.3,731.2,467.8,731.2,464.3z
		 M744.6,464.3L744.6,464.3c0-2.4-2.4-4-5.5-4c-3.1,0-5.5,1.7-5.5,4v0.1c0,2.1,2,3.9,5.5,3.9C742.6,468.2,744.6,466.4,744.6,464.3z
		 M743.9,454.4L743.9,454.4c0-2.1-2.1-3.7-4.8-3.7c-2.7,0-4.8,1.5-4.8,3.6v0.1c0,2.3,2.1,3.8,4.8,3.8S743.9,456.7,743.9,454.4z"/>
	<path class="st0" d="M750.1,454.2L750.1,454.2c0-2.9,1.9-5.4,4.8-5.4c2.8,0,4.7,2.5,4.7,5.3v0.1c0,2.8-1.9,5.4-4.8,5.4
		S750.1,457,750.1,454.2z M752.1,454L752.1,454c0,2.2,1.2,3.8,2.8,3.8c1.6,0,2.7-1.6,2.7-3.6v-0.1c0-2.1-1.3-3.7-2.8-3.7
		C753.2,450.4,752.1,452.1,752.1,454z M767.7,449h2.1l-8.1,11l-7.3,10h-2.2l8.1-10.9L767.7,449z M762.5,464.9L762.5,464.9
		c0-2.9,1.9-5.4,4.8-5.4c2.8,0,4.7,2.5,4.7,5.3v0.1c0,2.8-1.9,5.4-4.8,5.4C764.4,470.2,762.5,467.7,762.5,464.9z M770,464.9
		L770,464.9c0-2.2-1.2-3.8-2.8-3.8c-1.6,0-2.7,1.6-2.7,3.6v0.1c0,2.1,1.2,3.7,2.8,3.7C768.9,468.5,770,466.9,770,464.9z"/>
</g>
<g>
	<path class="st0" d="M520.5,371h7.9c4.7,0,7.9,2.5,7.9,6.7v0.1c0,4.5-3.8,6.9-8.2,6.9h-5.1v7.4h-2.4V371z M528.1,382.5
		c3.5,0,5.8-1.9,5.8-4.6v-0.1c0-3-2.2-4.6-5.6-4.6h-5.3v9.2H528.1z"/>
	<path class="st0" d="M538.7,387.5L538.7,387.5c0-3.3,2.7-5.1,6.6-5.1c2,0,3.4,0.3,4.8,0.7v-0.5c0-2.8-1.7-4.2-4.6-4.2
		c-1.8,0-3.3,0.5-4.7,1.1l-0.7-1.9c1.7-0.8,3.4-1.3,5.6-1.3c2.2,0,3.9,0.6,5,1.7c1,1.1,1.6,2.5,1.6,4.5v9.5h-2.2v-2.3
		c-1.1,1.4-2.9,2.7-5.6,2.7C541.6,392.4,538.7,390.7,538.7,387.5z M550.1,386.3v-1.5c-1.1-0.3-2.7-0.7-4.6-0.7
		c-2.9,0-4.5,1.3-4.5,3.2v0.1c0,2,1.8,3.1,3.9,3.1C547.8,390.5,550.1,388.8,550.1,386.3z"/>
	<path class="st0" d="M557.2,376.5h2.3v4c1.1-2.6,3.4-4.4,6.3-4.3v2.5h-0.2c-3.4,0-6.2,2.4-6.2,7.1v6.2h-2.3V376.5z"/>
	<path class="st0" d="M567.8,384.3L567.8,384.3c0-4.5,3.1-8.1,7.4-8.1c4.6,0,7.2,3.7,7.2,8.2c0,0.3,0,0.5,0,0.8h-12.3
		c0.3,3.4,2.7,5.2,5.5,5.2c2.1,0,3.6-0.9,4.9-2.2l1.4,1.3c-1.6,1.7-3.4,2.9-6.4,2.9C571.2,392.4,567.8,389.1,567.8,384.3z
		 M580.1,383.4c-0.2-2.8-1.9-5.3-4.9-5.3c-2.7,0-4.7,2.2-5,5.3H580.1z"/>
	<path class="st0" d="M586.5,376.5h2.3v2.7c1-1.7,2.6-3,5.3-3c3.8,0,5.9,2.5,5.9,6.2v9.6h-2.3V383c0-2.9-1.6-4.7-4.3-4.7
		c-2.7,0-4.7,2-4.7,4.9v8.9h-2.3V376.5z"/>
	<path class="st0" d="M605.8,387.9v-9.4h-2.2v-2h2.2v-4.7h2.3v4.7h4.9v2h-4.9v9.1c0,1.9,1,2.6,2.6,2.6c0.8,0,1.4-0.1,2.2-0.5v2
		c-0.8,0.4-1.7,0.7-2.8,0.7C607.7,392.3,605.8,391.1,605.8,387.9z"/>
	<path class="st0" d="M520.5,410h2.2l13.2,16.8V410h2.3v21h-1.9l-13.6-17.2V431h-2.3V410z"/>
	<path class="st0" d="M542.9,423.3L542.9,423.3c0-4.4,3.4-8.2,8.1-8.2c4.6,0,8.1,3.7,8.1,8v0.1c0,4.4-3.4,8.1-8.1,8.1
		C546.2,431.4,542.9,427.7,542.9,423.3z M556.7,423.3L556.7,423.3c0-3.4-2.5-6.1-5.8-6.1c-3.4,0-5.7,2.7-5.7,6v0.1
		c0,3.3,2.5,6,5.7,6C554.3,429.3,556.7,426.6,556.7,423.3z"/>
	<path class="st0" d="M563.2,415.5h2.3v2.7c1-1.7,2.6-3,5.3-3c3.8,0,5.9,2.5,5.9,6.2v9.6h-2.3v-9.1c0-2.9-1.6-4.7-4.3-4.7
		c-2.7,0-4.7,2-4.7,4.9v8.9h-2.3V415.5z"/>
	<path class="st0" d="M581,420.8h8.3v2.4H581V420.8z"/>
	<path class="st0" d="M593.9,415.5h2.3v3.1c1.3-1.9,3.1-3.4,5.9-3.4c3.7,0,7.4,2.9,7.4,8v0.1c0,5.1-3.7,8.1-7.4,8.1
		c-2.9,0-4.7-1.6-5.9-3.3v7.8h-2.3V415.5z M607.2,423.3L607.2,423.3c0-3.7-2.5-6.1-5.5-6.1c-2.9,0-5.6,2.4-5.6,6v0.1
		c0,3.6,2.7,6,5.6,6C604.7,429.3,607.2,427,607.2,423.3z"/>
	<path class="st0" d="M612.7,426.5L612.7,426.5c0-3.3,2.7-5.1,6.6-5.1c2,0,3.4,0.3,4.8,0.7v-0.5c0-2.8-1.7-4.2-4.6-4.2
		c-1.8,0-3.3,0.5-4.7,1.1l-0.7-1.9c1.7-0.8,3.4-1.3,5.6-1.3c2.2,0,3.9,0.6,5,1.7c1,1,1.6,2.5,1.6,4.5v9.5h-2.2v-2.3
		c-1.1,1.4-2.9,2.7-5.6,2.7C615.6,431.3,612.7,429.7,612.7,426.5z M624.1,425.3v-1.5c-1.1-0.3-2.7-0.7-4.6-0.7
		c-2.9,0-4.5,1.3-4.5,3.2v0.1c0,2,1.8,3.1,3.9,3.1C621.8,429.5,624.1,427.8,624.1,425.3z"/>
	<path class="st0" d="M631.2,415.5h2.3v4c1.1-2.6,3.4-4.4,6.3-4.3v2.5h-0.2c-3.4,0-6.2,2.4-6.2,7.1v6.2h-2.3V415.5z"/>
	<path class="st0" d="M641.7,423.3L641.7,423.3c0-4.5,3.1-8.1,7.4-8.1c4.6,0,7.2,3.7,7.2,8.2c0,0.3,0,0.5,0,0.8h-12.3
		c0.3,3.4,2.7,5.2,5.5,5.2c2.1,0,3.6-0.9,4.9-2.2l1.4,1.3c-1.6,1.7-3.4,2.9-6.4,2.9C645.2,431.4,641.7,428.1,641.7,423.3z
		 M654.1,422.4c-0.2-2.8-1.9-5.3-4.9-5.3c-2.7,0-4.7,2.2-5,5.3H654.1z"/>
	<path class="st0" d="M660.5,415.5h2.3v2.7c1-1.7,2.6-3,5.3-3c3.8,0,5.9,2.5,5.9,6.2v9.6h-2.3v-9.1c0-2.9-1.6-4.7-4.3-4.7
		c-2.7,0-4.7,2-4.7,4.9v8.9h-2.3V415.5z"/>
	<path class="st0" d="M679.7,426.9v-9.4h-2.2v-2h2.2v-4.7h2.3v4.7h4.9v2h-4.9v9.1c0,1.9,1,2.6,2.6,2.6c0.8,0,1.4-0.1,2.2-0.5v2
		c-0.8,0.4-1.7,0.7-2.8,0.7C681.6,431.3,679.7,430,679.7,426.9z"/>
	<path class="st0" d="M520.2,461.2V449h2.4V461c0,4.5,2.4,7.1,6.4,7.1c3.9,0,6.3-2.3,6.3-6.9V449h2.4v12c0,6.1-3.5,9.3-8.8,9.3
		C523.7,470.3,520.2,467.1,520.2,461.2z"/>
	<path class="st0" d="M542.9,454.5h2.3v2.7c1-1.7,2.6-3,5.3-3c3.8,0,5.9,2.5,5.9,6.2v9.6h-2.3v-9.1c0-2.9-1.6-4.7-4.3-4.7
		c-2.7,0-4.7,2-4.7,4.9v8.9h-2.3V454.5z"/>
	<path class="st0" d="M561.4,448.1h2.3v15.1l8.4-8.7h2.9l-6.5,6.7l6.7,8.8h-2.8l-5.5-7.2l-3.2,3.2v4h-2.3V448.1z"/>
	<path class="st0" d="M578.4,454.5h2.3v2.7c1-1.7,2.6-3,5.3-3c3.8,0,5.9,2.5,5.9,6.2v9.6h-2.3v-9.1c0-2.9-1.6-4.7-4.3-4.7
		c-2.7,0-4.7,2-4.7,4.9v8.9h-2.3V454.5z"/>
	<path class="st0" d="M596,462.3L596,462.3c0-4.4,3.4-8.2,8.1-8.2c4.6,0,8.1,3.7,8.1,8v0.1c0,4.4-3.4,8.1-8.1,8.1
		C599.3,470.3,596,466.7,596,462.3z M609.8,462.3L609.8,462.3c0-3.4-2.5-6.1-5.8-6.1c-3.4,0-5.7,2.7-5.7,6v0.1c0,3.3,2.5,6,5.7,6
		C607.4,468.3,609.8,465.6,609.8,462.3z"/>
	<path class="st0" d="M614.2,454.5h2.5l4.1,12.5l4.2-12.5h1.9l4.2,12.5l4.1-12.5h2.4l-5.5,15.6h-2l-4.2-12.2l-4.2,12.2h-2
		L614.2,454.5z"/>
	<path class="st0" d="M641.4,454.5h2.3v2.7c1-1.7,2.6-3,5.3-3c3.8,0,5.9,2.5,5.9,6.2v9.6h-2.3v-9.1c0-2.9-1.6-4.7-4.3-4.7
		c-2.7,0-4.7,2-4.7,4.9v8.9h-2.3V454.5z"/>
</g>
<path class="st1" d="M491.4,392L491.4,392c-5.4,0-9.7-4.3-9.7-9.7v0c0-5.4,4.3-9.7,9.7-9.7h0c5.4,0,9.7,4.3,9.7,9.7v0
	C501.1,387.7,496.8,392,491.4,392z"/>
<path class="st3" d="M491.4,431.2L491.4,431.2c-5.4,0-9.7-4.3-9.7-9.7v0c0-5.4,4.3-9.7,9.7-9.7h0c5.4,0,9.7,4.3,9.7,9.7v0
	C501.1,426.9,496.8,431.2,491.4,431.2z"/>
<path class="st4" d="M491.4,470.4L491.4,470.4c-5.4,0-9.7-4.3-9.7-9.7v0c0-5.4,4.3-9.7,9.7-9.7h0c5.4,0,9.7,4.3,9.7,9.7v0
	C501.1,466.1,496.8,470.4,491.4,470.4z"/>
<g>
	<path class="st0" d="M121.7,371h2.4l7.6,11.5l7.6-11.5h2.4v21h-2.4v-17l-7.6,11.2h-0.1l-7.6-11.2v17h-2.3V371z"/>
	<path class="st0" d="M146.2,387.5L146.2,387.5c0-3.3,2.7-5.1,6.6-5.1c2,0,3.4,0.3,4.8,0.7v-0.5c0-2.8-1.7-4.2-4.6-4.2
		c-1.8,0-3.3,0.5-4.7,1.1l-0.7-1.9c1.7-0.8,3.4-1.3,5.6-1.3c2.2,0,3.9,0.6,5,1.7c1,1.1,1.6,2.5,1.6,4.5v9.5h-2.2v-2.3
		c-1.1,1.4-2.9,2.7-5.6,2.7C149.1,392.4,146.2,390.7,146.2,387.5z M157.6,386.3v-1.5c-1.1-0.3-2.7-0.7-4.6-0.7
		c-2.9,0-4.5,1.3-4.5,3.2v0.1c0,2,1.8,3.1,3.9,3.1C155.3,390.5,157.6,388.8,157.6,386.3z"/>
	<path class="st0" d="M165,370.1h2.3V392H165V370.1z"/>
	<path class="st0" d="M171.7,384.3L171.7,384.3c0-4.5,3.1-8.1,7.4-8.1c4.6,0,7.2,3.7,7.2,8.2c0,0.3,0,0.5,0,0.8H174
		c0.3,3.4,2.7,5.2,5.5,5.2c2.1,0,3.6-0.9,4.9-2.2l1.4,1.3c-1.6,1.7-3.5,2.9-6.4,2.9C175.2,392.4,171.7,389.1,171.7,384.3z
		 M184,383.4c-0.2-2.8-1.9-5.3-4.9-5.3c-2.7,0-4.7,2.2-5,5.3H184z"/>
	<path class="st0" d="M121.7,410h15.1v2.2h-12.7v7.5h11.4v2.2h-11.4v9.1h-2.4V410z"/>
	<path class="st0" d="M139.6,423.3L139.6,423.3c0-4.5,3.1-8.1,7.4-8.1c4.6,0,7.2,3.7,7.2,8.2c0,0.3,0,0.5,0,0.8h-12.3
		c0.3,3.4,2.7,5.2,5.5,5.2c2.1,0,3.6-0.9,4.9-2.2l1.4,1.3c-1.6,1.7-3.5,2.9-6.4,2.9C143.1,431.4,139.6,428.1,139.6,423.3z
		 M151.9,422.4c-0.2-2.8-1.9-5.3-4.9-5.3c-2.7,0-4.7,2.2-5,5.3H151.9z"/>
	<path class="st0" d="M158.3,415.5h2.3v2.6c1-1.5,2.4-2.9,5-2.9c2.5,0,4.1,1.3,5,3.1c1.1-1.7,2.8-3.1,5.5-3.1c3.6,0,5.8,2.4,5.8,6.2
		v9.6h-2.3v-9.1c0-3-1.5-4.7-4-4.7c-2.3,0-4.3,1.7-4.3,4.8v8.9h-2.3v-9.1c0-2.9-1.5-4.6-4-4.6s-4.3,2-4.3,4.9v8.8h-2.3V415.5z"/>
	<path class="st0" d="M185.7,426.5L185.7,426.5c0-3.3,2.7-5.1,6.6-5.1c2,0,3.4,0.3,4.8,0.7v-0.5c0-2.8-1.7-4.2-4.6-4.2
		c-1.8,0-3.3,0.5-4.7,1.1l-0.7-1.9c1.7-0.8,3.4-1.3,5.6-1.3c2.2,0,3.9,0.6,5,1.7c1,1,1.6,2.5,1.6,4.5v9.5h-2.2v-2.3
		c-1.1,1.4-2.9,2.7-5.6,2.7C188.6,431.3,185.7,429.7,185.7,426.5z M197.1,425.3v-1.5c-1.1-0.3-2.7-0.7-4.6-0.7
		c-2.9,0-4.5,1.3-4.5,3.2v0.1c0,2,1.8,3.1,3.9,3.1C194.8,429.5,197.1,427.8,197.1,425.3z"/>
	<path class="st0" d="M204.4,409.1h2.3V431h-2.3V409.1z"/>
	<path class="st0" d="M211.2,423.3L211.2,423.3c0-4.5,3.1-8.1,7.4-8.1c4.6,0,7.2,3.7,7.2,8.2c0,0.3,0,0.5,0,0.8h-12.3
		c0.3,3.4,2.7,5.2,5.5,5.2c2.1,0,3.6-0.9,4.9-2.2l1.4,1.3c-1.6,1.7-3.5,2.9-6.4,2.9C214.6,431.4,211.2,428.1,211.2,423.3z
		 M223.5,422.4c-0.2-2.8-1.9-5.3-4.9-5.3c-2.7,0-4.7,2.2-5,5.3H223.5z"/>
	<path class="st0" d="M121.4,461.2V449h2.4V461c0,4.5,2.4,7.1,6.4,7.1c3.9,0,6.3-2.3,6.3-6.9V449h2.4v12c0,6.1-3.5,9.3-8.8,9.3
		C124.9,470.3,121.4,467.1,121.4,461.2z"/>
	<path class="st0" d="M144.1,454.5h2.3v2.7c1-1.7,2.6-3,5.3-3c3.7,0,5.9,2.5,5.9,6.2v9.6h-2.3v-9.1c0-2.9-1.6-4.7-4.3-4.7
		c-2.7,0-4.6,2-4.6,4.9v8.9h-2.3V454.5z"/>
	<path class="st0" d="M162.6,448.1h2.3v15.1l8.4-8.7h2.9l-6.5,6.7l6.7,8.8h-2.8l-5.5-7.2l-3.1,3.2v4h-2.3V448.1z"/>
	<path class="st0" d="M179.7,454.5h2.3v2.7c1-1.7,2.6-3,5.3-3c3.7,0,5.9,2.5,5.9,6.2v9.6h-2.3v-9.1c0-2.9-1.6-4.7-4.3-4.7
		c-2.7,0-4.6,2-4.6,4.9v8.9h-2.3V454.5z"/>
	<path class="st0" d="M197.2,462.3L197.2,462.3c0-4.4,3.4-8.2,8.1-8.2c4.6,0,8.1,3.7,8.1,8v0.1c0,4.4-3.4,8.1-8.1,8.1
		C200.6,470.3,197.2,466.7,197.2,462.3z M211,462.3L211,462.3c0-3.4-2.5-6.1-5.8-6.1c-3.4,0-5.7,2.7-5.7,6v0.1c0,3.3,2.5,6,5.7,6
		C208.6,468.3,211,465.6,211,462.3z"/>
	<path class="st0" d="M215.4,454.5h2.5l4.1,12.5l4.2-12.5h1.9l4.2,12.5l4.1-12.5h2.4l-5.5,15.6h-2l-4.2-12.2l-4.2,12.2h-2
		L215.4,454.5z"/>
	<path class="st0" d="M242.6,454.5h2.3v2.7c1-1.7,2.6-3,5.3-3c3.7,0,5.9,2.5,5.9,6.2v9.6h-2.3v-9.1c0-2.9-1.6-4.7-4.3-4.7
		c-2.7,0-4.6,2-4.6,4.9v8.9h-2.3V454.5z"/>
</g>
<g>
	<path class="st0" d="M304.9,387.1h-11.1l-0.6-1.7l11.9-14.4h2.1v14.2h3.2v2h-3.2v5h-2.3V387.1z M304.9,385.1v-10.8l-8.8,10.8H304.9
		z"/>
	<path class="st0" d="M313.6,389.1l1.6-1.7c1.8,1.8,3.8,2.9,6,2.9c3,0,5.1-2,5.1-4.7v-0.1c0-2.6-2.2-4.4-5.2-4.4
		c-1.8,0-3.2,0.5-4.4,1.2l-1.6-1l0.6-10.2h12.1v2.2h-10l-0.4,6.7c1.2-0.5,2.4-0.9,4.1-0.9c4.1,0,7.3,2.4,7.3,6.4v0.1
		c0,4.1-3.1,6.9-7.5,6.9C318.1,392.4,315.5,391,313.6,389.1z"/>
	<path class="st0" d="M332,376.2L332,376.2c0-2.9,1.9-5.4,4.8-5.4c2.8,0,4.7,2.5,4.7,5.3v0.1c0,2.8-1.9,5.4-4.8,5.4
		C333.8,381.5,332,379,332,376.2z M334,376.1L334,376.1c0,2.2,1.2,3.8,2.8,3.8c1.6,0,2.7-1.6,2.7-3.6v-0.1c0-2.1-1.3-3.7-2.8-3.7
		C335,372.5,334,374.1,334,376.1z M349.5,371h2.1l-8.1,11l-7.3,10h-2.2l8.1-10.9L349.5,371z M344.3,387L344.3,387
		c0-2.9,1.9-5.4,4.8-5.4s4.7,2.5,4.7,5.3v0.1c0,2.8-1.9,5.4-4.8,5.4C346.2,392.3,344.3,389.8,344.3,387z M351.8,387L351.8,387
		c0-2.2-1.2-3.8-2.8-3.8c-1.6,0-2.7,1.6-2.7,3.6v0.1c0,2.1,1.2,3.7,2.8,3.7C350.8,390.6,351.8,389,351.8,387z"/>
	<path class="st0" d="M304.9,426h-11.1l-0.6-1.7l11.9-14.4h2.1V424h3.2v2h-3.2v5h-2.3V426z M304.9,424v-10.8L296,424H304.9z"/>
	<path class="st0" d="M313.9,420.6L313.9,420.6c0-5.9,3.5-10.9,8.9-10.9s8.8,4.9,8.8,10.8v0.1c0,5.9-3.5,10.9-8.9,10.9
		C317.3,431.4,313.9,426.4,313.9,420.6z M329.2,420.6L329.2,420.6c0-4.7-2.5-8.8-6.4-8.8c-3.9,0-6.4,4-6.4,8.6v0.1
		c0,4.6,2.5,8.7,6.4,8.7S329.2,425.2,329.2,420.6z"/>
	<path class="st0" d="M335,415.2L335,415.2c0-2.9,1.9-5.4,4.8-5.4c2.8,0,4.7,2.5,4.7,5.3v0.1c0,2.8-1.9,5.4-4.8,5.4
		C336.9,420.5,335,418,335,415.2z M337.1,415.1L337.1,415.1c0,2.2,1.2,3.8,2.8,3.8c1.6,0,2.7-1.6,2.7-3.6v-0.1
		c0-2.1-1.3-3.7-2.8-3.7C338.1,411.4,337.1,413.1,337.1,415.1z M352.6,410h2.1l-8.1,11l-7.3,10h-2.2l8.1-10.9L352.6,410z
		 M347.4,425.9L347.4,425.9c0-2.9,1.9-5.4,4.8-5.4s4.7,2.5,4.7,5.3v0.1c0,2.8-1.9,5.4-4.8,5.4C349.3,431.2,347.4,428.8,347.4,425.9z
		 M354.9,425.9L354.9,425.9c0-2.2-1.2-3.8-2.8-3.8c-1.6,0-2.7,1.6-2.7,3.6v0.1c0,2.1,1.2,3.7,2.8,3.7
		C353.9,429.6,354.9,427.9,354.9,425.9z"/>
	<path class="st0" d="M297.3,451.3l-4,1.2l-0.6-1.9l5.1-1.8h1.7V470h-2.3V451.3z"/>
	<path class="st0" d="M304.2,467l1.6-1.7c1.8,1.8,3.8,2.9,6,2.9c3,0,5.1-2,5.1-4.7v-0.1c0-2.6-2.2-4.4-5.2-4.4
		c-1.8,0-3.2,0.5-4.4,1.2l-1.6-1l0.6-10.2h12.1v2.2h-10l-0.4,6.7c1.2-0.5,2.4-0.9,4.1-0.9c4.1,0,7.3,2.4,7.3,6.4v0.1
		c0,4.1-3.1,6.9-7.5,6.9C308.7,470.3,306.1,468.9,304.2,467z"/>
	<path class="st0" d="M322.6,454.2L322.6,454.2c0-2.9,1.9-5.4,4.8-5.4c2.8,0,4.7,2.5,4.7,5.3v0.1c0,2.8-1.9,5.4-4.8,5.4
		C324.5,459.5,322.6,457,322.6,454.2z M324.6,454L324.6,454c0,2.2,1.2,3.8,2.8,3.8c1.6,0,2.7-1.6,2.7-3.6v-0.1
		c0-2.1-1.3-3.7-2.8-3.7C325.7,450.4,324.6,452.1,324.6,454z M340.1,449h2.1l-8.1,11l-7.3,10h-2.2l8.1-10.9L340.1,449z M335,464.9
		L335,464.9c0-2.9,1.9-5.4,4.8-5.4s4.7,2.5,4.7,5.3v0.1c0,2.8-1.9,5.4-4.8,5.4C336.8,470.2,335,467.7,335,464.9z M342.5,464.9
		L342.5,464.9c0-2.2-1.2-3.8-2.8-3.8c-1.6,0-2.7,1.6-2.7,3.6v0.1c0,2.1,1.2,3.7,2.8,3.7C341.4,468.5,342.5,466.9,342.5,464.9z"/>
</g>
<path class="st5" d="M92.3,392L92.3,392c-5.4,0-9.7-4.3-9.7-9.7v0c0-5.4,4.3-9.7,9.7-9.7h0c5.4,0,9.7,4.3,9.7,9.7v0
	C102,387.7,97.7,392,92.3,392z"/>
<path class="st6" d="M92.3,431.2L92.3,431.2c-5.4,0-9.7-4.3-9.7-9.7v0c0-5.4,4.3-9.7,9.7-9.7h0c5.4,0,9.7,4.3,9.7,9.7v0
	C102,426.9,97.7,431.2,92.3,431.2z"/>
<path class="st4" d="M92.3,470.4L92.3,470.4c-5.4,0-9.7-4.3-9.7-9.7v0c0-5.4,4.3-9.7,9.7-9.7h0c5.4,0,9.7,4.3,9.7,9.7v0
	C102,466.1,97.7,470.4,92.3,470.4z"/>
<path class="st1" d="M694.6,211.8h36c-1.1-55.1-45.7-99.8-100.9-100.9v36C665,148,693.5,176.5,694.6,211.8z"/>
<path class="st3" d="M627.7,280.8c-32.3,0-59.3-23-65.6-53.5l-35.4,6.2c9.2,47.3,51,83.2,101,83.2c56.1,0,101.8-45.1,102.9-100.9
	h-36C693.5,251.9,663.9,280.8,627.7,280.8z"/>
<path class="st4" d="M561.4,223.3c-0.4-3.1-0.7-6.3-0.7-9.5c0-36.2,28.9-65.9,64.9-66.9v-36c-55.8,1.1-100.9,46.8-100.9,102.9
	c0,5.4,0.4,10.6,1.2,15.7L561.4,223.3z"/>
<path class="st4" d="M175.6,164.2c11.4-10.4,26.4-16.8,42.9-17.3v-36c-26,0.5-49.7,10.7-67.5,27.1L175.6,164.2z"/>
<path class="st5" d="M222.6,110.9v36c36,1.1,64.9,30.7,64.9,66.9c0,29-18.5,53.7-44.3,63l11.2,34.2c40.2-14,69.1-52.3,69.1-97.2
	C323.5,157.8,278.4,112,222.6,110.9z"/>
<path class="st6" d="M220.5,280.8c-36.9,0-67-30-67-67c0-18.2,7.3-34.7,19.1-46.8L148,140.9c-18.8,18.7-30.4,44.5-30.4,73
	c0,56.8,46.2,102.9,102.9,102.9c10.4,0,20.5-1.6,30-4.5l-11.2-34.2C233.4,279.9,227.1,280.8,220.5,280.8z"/>
<line class="st7" x1="802.4" y1="539.4" x2="53.8" y2="539.4"/>
</svg>
